<svg width="24" height="24" viewBox="0 0 24 24" fill="none" xmlns="http://www.w3.org/2000/svg">
<path fill-rule="evenodd" clip-rule="evenodd" d="M13.7243 1.13437C13.8668 1.1568 14.0129 1.12333 14.1291 1.03772C14.4853 0.775126 14.3745 0.226549 13.9377 0.155632C13.3069 0.053231 12.6597 0 12 0C5.37258 0 0 5.37258 0 12C0 15.4449 1.45158 18.5507 3.77645 20.7392C4.00743 20.9567 4.377 20.8904 4.53259 20.6139C4.64942 20.4064 4.60424 20.1462 4.43142 19.9823C2.318 17.9778 1 15.1428 1 12C1 5.92487 5.92487 1 12 1C12.5866 1 13.1626 1.04592 13.7243 1.13437ZM19.5688 4.01794C19.396 3.85402 19.3509 3.59389 19.4677 3.38632C19.6233 3.10987 19.9929 3.0436 20.2238 3.26104C22.5485 5.44954 24 8.55526 24 12C24 18.6274 18.6274 24 12 24C11.3405 24 10.6934 23.9468 10.0629 23.8445C9.62602 23.7736 9.51524 23.225 9.87146 22.9624C9.98758 22.8768 10.1337 22.8433 10.2762 22.8657C10.8378 22.9541 11.4135 23 12 23C18.0751 23 23 18.0751 23 12C23 8.85733 21.6821 6.02248 19.5688 4.01794ZM18.6671 0.176996L5.09756 10.1804C4.94195 10.2951 4.9455 10.5281 5.10455 10.639L10.3736 14.3134L5.12421 23.6403C5.04946 23.7731 5.21013 23.9139 5.33304 23.8233L18.9025 13.8199C19.0581 13.7052 19.0546 13.4722 18.8955 13.3613L13.6265 9.68693L18.8759 0.359983C18.9506 0.227166 18.79 0.0863823 18.6671 0.176996Z" fill="url(#paint0_linear_1451_1256)"/>
<defs>
<linearGradient id="paint0_linear_1451_1256" x1="24" y1="-7.52509e-07" x2="-2.18302e-06" y2="24" gradientUnits="userSpaceOnUse">
<stop stop-color="#FB049C"/>
<stop offset="1" stop-color="#4F02FF"/>
</linearGradient>
</defs>
</svg>
