<svg width="24" height="24" viewBox="0 0 24 24" fill="none" xmlns="http://www.w3.org/2000/svg">
<path fill-rule="evenodd" clip-rule="evenodd" d="M14.2657 23.7864C19.8099 22.727 24 17.8528 24 12C24 5.37258 18.6274 0 12 0C6.1721 0 1.31454 4.1545 0.22734 9.66346C3.80865 9.95881 7.22081 11.4148 9.86396 14.0579C12.5297 16.7237 13.9879 20.1716 14.2657 23.7864ZM13.1315 23.9473C12.759 23.9822 12.3816 24 12 24C5.37258 24 0 18.6274 0 12C0 11.6007 0.0195025 11.206 0.0576069 10.8167C3.01808 11.7526 5.81109 13.3995 8.16695 15.7553C10.5447 18.1331 12.2003 20.9562 13.1315 23.9473ZM15.3789 8.54315C13.9715 7.13569 12.2916 6.13403 10.4592 5.5279C12.8943 5.19633 15.1267 5.74554 16.6518 7.2706C18.1769 8.79576 18.7261 11.0284 18.3944 13.4637C17.7883 11.6309 16.7866 9.9508 15.3789 8.54315ZM11.9845 11.9367C10.0654 10.0176 7.78488 8.65196 5.31876 7.83034C8.33338 7.67098 11.1872 8.59365 13.2579 10.6643C15.3288 12.7352 16.2514 15.5897 16.0917 18.6048C15.2702 16.1378 13.9042 13.8564 11.9845 11.9367Z" fill="url(#paint0_linear_1430_2003)"/>
<defs>
<linearGradient id="paint0_linear_1430_2003" x1="24" y1="-7.52509e-07" x2="-2.18302e-06" y2="24" gradientUnits="userSpaceOnUse">
<stop stop-color="#FB049C"/>
<stop offset="1" stop-color="#4F02FF"/>
</linearGradient>
</defs>
</svg>
