<svg width="24" height="24" viewBox="0 0 24 24" fill="none" xmlns="http://www.w3.org/2000/svg">
<path fill-rule="evenodd" clip-rule="evenodd" d="M1.04798 13.0344C1.02858 12.8263 0.894371 12.6437 0.696733 12.5759C0.358032 12.4596 0.0161375 12.7237 0.0479648 13.0804C0.562421 18.8457 5.15429 23.4376 10.9196 23.952C11.2763 23.9839 11.5404 23.642 11.4241 23.3033C11.3563 23.1056 11.1737 22.9714 10.9656 22.952C5.71607 22.4624 1.53758 18.2839 1.04798 13.0344ZM16.4146 22.0783C16.2144 22.1661 16.0895 22.3704 16.1061 22.5884C16.1315 22.9216 16.4667 23.1462 16.7733 23.0131C21.0257 21.1675 24 16.9311 24 12C24 5.37258 18.6274 0 12 0C7.06888 0 2.83245 2.9743 0.986844 7.22675C0.853801 7.53329 1.07836 7.86855 1.41157 7.89391C1.62959 7.9105 1.83386 7.7856 1.92169 7.58536C3.62245 3.70819 7.49495 1 12 1C18.0751 1 23 5.92487 23 12C23 16.505 20.2918 20.3775 16.4146 22.0783ZM14.2857 9.7143C12.7122 8.14079 10.8232 7.02783 8.74895 6.36093C8.4816 6.27497 8.52698 5.88259 8.81161 5.87198C11.4808 5.7724 13.9227 6.56435 15.6792 8.32088C17.4358 10.0774 18.2277 12.5193 18.1281 15.1886C18.1175 15.4732 17.7251 15.5186 17.6392 15.2512C16.9723 13.1769 15.8593 11.2878 14.2857 9.7143ZM4.62584 7.95953C4.33339 7.96409 4.28917 8.36892 4.56711 8.44808C7.1439 9.18206 9.5265 10.5289 11.4988 12.5012C13.4711 14.4735 14.818 16.8561 15.5519 19.433C15.6311 19.7109 16.0359 19.6667 16.0405 19.3742C16.0896 16.2265 15.0614 13.2769 12.8923 11.1077C10.7232 8.93864 7.77353 7.91045 4.62584 7.95953ZM0.188235 10.327C3.31542 11.1856 6.26248 12.8387 8.71189 15.2881C11.1613 17.7375 12.8144 20.6846 13.673 23.8118C13.7506 24.0944 14.1571 24.0464 14.1545 23.7502C14.123 20.1115 12.783 16.5722 10.1054 13.8946C7.42776 11.217 3.88853 9.877 0.24978 9.84546C-0.0464399 9.8429 -0.0944085 10.2494 0.188235 10.327Z" fill="url(#paint0_linear_1451_1262)"/>
<defs>
<linearGradient id="paint0_linear_1451_1262" x1="24" y1="-7.52509e-07" x2="-1.74418e-05" y2="24" gradientUnits="userSpaceOnUse">
<stop stop-color="#FB049C"/>
<stop offset="1" stop-color="#4F02FF"/>
</linearGradient>
</defs>
</svg>
