<svg width="254" height="18" viewBox="0 0 254 18" fill="none" xmlns="http://www.w3.org/2000/svg">
<path fill-rule="evenodd" clip-rule="evenodd" d="M81.7071 0.292832C81.3166 -0.0976921 80.6834 -0.0976921 80.2929 0.292832C79.9024 0.683356 79.9024 1.31652 80.2929 1.70705L92 13.4142V16.9999C92 17.5522 92.4477 17.9999 93 17.9999C93.5523 17.9999 94 17.5522 94 16.9999V13.4142L105.707 1.70705C106.098 1.31652 106.098 0.683356 105.707 0.292832C105.317 -0.0976921 104.683 -0.0976921 104.293 0.292832L93 11.5857L81.7071 0.292832ZM5 1.99994C3.34315 1.99994 2 3.34308 2 4.99994V7.99994H21C21.5523 7.99994 22 8.44765 22 8.99994C22 9.55222 21.5523 9.99994 21 9.99994H2V12.9999C2 14.6568 3.34315 15.9999 5 15.9999H23H25C25.5523 15.9999 26 16.4477 26 16.9999C26 17.5522 25.5523 17.9999 25 17.9999H23H5C2.23858 17.9999 0 15.7614 0 12.9999V8.99994V4.99994C0 2.23852 2.23858 -6.10352e-05 5 -6.10352e-05H23H25C25.5523 -6.10352e-05 26 0.447654 26 0.999939C26 1.55222 25.5523 1.99994 25 1.99994H23H5ZM45 -6.10352e-05C45.5523 -6.10352e-05 46 0.447654 46 0.999939V2.99994V12.9999C46 14.6568 47.3431 15.9999 49 15.9999H67H69C69.5523 15.9999 70 16.4477 70 16.9999C70 17.5522 69.5523 17.9999 69 17.9999H67H49C46.2386 17.9999 44 15.7614 44 12.9999V2.99994V0.999939C44 0.447654 44.4477 -6.10352e-05 45 -6.10352e-05ZM125 1.99994C123.343 1.99994 122 3.34308 122 4.99994C122 6.65679 123.343 7.99994 125 7.99994H141C143.761 7.99994 146 10.2385 146 12.9999C146 15.7614 143.761 17.9999 141 17.9999H123H122C121.448 17.9999 121 17.5522 121 16.9999C121 16.4477 121.448 15.9999 122 15.9999H123H141C142.657 15.9999 144 14.6568 144 12.9999C144 11.3431 142.657 9.99994 141 9.99994H125C122.239 9.99994 120 7.76136 120 4.99994C120 2.23852 122.239 -6.10352e-05 125 -6.10352e-05H143H144C144.552 -6.10352e-05 145 0.447654 145 0.999939C145 1.55222 144.552 1.99994 144 1.99994H143H125ZM165 17.9999C165.552 17.9999 166 17.5522 166 16.9999V14.9999V2.99994V0.999939C166 0.447654 165.552 -6.10352e-05 165 -6.10352e-05C164.448 -6.10352e-05 164 0.447654 164 0.999939V2.99994V14.9999V16.9999C164 17.5522 164.448 17.9999 165 17.9999ZM186 12.9999C186 14.6568 187.343 15.9999 189 15.9999H205C206.657 15.9999 208 14.6568 208 12.9999V2.99994V0.999939C208 0.447654 208.448 -6.10352e-05 209 -6.10352e-05C209.552 -6.10352e-05 210 0.447654 210 0.999939V2.99994V12.9999C210 15.7614 207.761 17.9999 205 17.9999H189C186.239 17.9999 184 15.7614 184 12.9999V2.99994V0.999939C184 0.447654 184.448 -6.10352e-05 185 -6.10352e-05C185.552 -6.10352e-05 186 0.447654 186 0.999939V2.99994V12.9999ZM230 4.99994C230 3.34308 231.343 1.99994 233 1.99994H240V16.9999C240 17.5522 240.448 17.9999 241 17.9999C241.552 17.9999 242 17.5522 242 16.9999V1.99994H249C250.657 1.99994 252 3.34308 252 4.99994V14.9999V16.9999C252 17.5522 252.448 17.9999 253 17.9999C253.552 17.9999 254 17.5522 254 16.9999V14.9999V4.99994C254 2.23852 251.761 -6.10352e-05 249 -6.10352e-05H241H233C230.239 -6.10352e-05 228 2.23852 228 4.99994V16.9999C228 17.5522 228.448 17.9999 229 17.9999C229.552 17.9999 230 17.5522 230 16.9999V4.99994Z" fill="url(#paint0_linear_416_344)"/>
<defs>
<linearGradient id="paint0_linear_416_344" x1="127.007" y1="18" x2="127.007" y2="0.123649" gradientUnits="userSpaceOnUse">
<stop stop-color="white"/>
<stop offset="1" stop-color="white" stop-opacity="0.37"/>
</linearGradient>
</defs>
</svg>
