<svg width="254" height="158" viewBox="0 0 254 158" fill="none" xmlns="http://www.w3.org/2000/svg">
<path d="M67.6939 154.112C68.0619 154.192 68.3446 154.352 68.5419 154.592C68.7446 154.827 68.8459 155.131 68.8459 155.504C68.8459 155.984 68.6672 156.355 68.3099 156.616C67.9579 156.872 67.4352 157 66.7419 157H64.1659V151.4H66.5819C67.2059 151.4 67.6886 151.525 68.0299 151.776C68.3766 152.027 68.5499 152.381 68.5499 152.84C68.5499 153.149 68.4726 153.413 68.3179 153.632C68.1686 153.845 67.9606 154.005 67.6939 154.112ZM64.7579 151.888V153.92H66.5419C66.9952 153.92 67.3446 153.835 67.5899 153.664C67.8352 153.488 67.9579 153.235 67.9579 152.904C67.9579 152.573 67.8352 152.323 67.5899 152.152C67.3446 151.976 66.9952 151.888 66.5419 151.888H64.7579ZM66.7339 156.512C67.2352 156.512 67.6139 156.427 67.8699 156.256C68.1259 156.085 68.2539 155.819 68.2539 155.456C68.2539 154.757 67.7472 154.408 66.7339 154.408H64.7579V156.512H66.7339Z" fill="white"/>
<path d="M78.1971 151.4H78.7891V156.488H81.9251V157H78.1971V151.4Z" fill="white"/>
<path d="M93.2467 157.048C92.692 157.048 92.188 156.925 91.7347 156.68C91.2867 156.429 90.9347 156.088 90.6787 155.656C90.428 155.224 90.3027 154.739 90.3027 154.2C90.3027 153.661 90.428 153.176 90.6787 152.744C90.9347 152.312 91.2867 151.973 91.7347 151.728C92.188 151.477 92.692 151.352 93.2467 151.352C93.8014 151.352 94.3 151.475 94.7427 151.72C95.1907 151.965 95.5427 152.307 95.7987 152.744C96.0547 153.176 96.1827 153.661 96.1827 154.2C96.1827 154.739 96.0547 155.227 95.7987 155.664C95.5427 156.096 95.1907 156.435 94.7427 156.68C94.3 156.925 93.8014 157.048 93.2467 157.048ZM93.2467 156.52C93.6894 156.52 94.0894 156.421 94.4467 156.224C94.804 156.021 95.084 155.744 95.2867 155.392C95.4894 155.035 95.5907 154.637 95.5907 154.2C95.5907 153.763 95.4894 153.368 95.2867 153.016C95.084 152.659 94.804 152.381 94.4467 152.184C94.0894 151.981 93.6894 151.88 93.2467 151.88C92.804 151.88 92.4014 151.981 92.0387 152.184C91.6814 152.381 91.3987 152.659 91.1907 153.016C90.988 153.368 90.8867 153.763 90.8867 154.2C90.8867 154.637 90.988 155.035 91.1907 155.392C91.3987 155.744 91.6814 156.021 92.0387 156.224C92.4014 156.421 92.804 156.52 93.2467 156.52Z" fill="white"/>
<path d="M107.942 157.048C107.387 157.048 106.886 156.925 106.438 156.68C105.995 156.435 105.646 156.096 105.39 155.664C105.139 155.227 105.014 154.739 105.014 154.2C105.014 153.661 105.139 153.176 105.39 152.744C105.646 152.307 105.998 151.965 106.446 151.72C106.894 151.475 107.395 151.352 107.95 151.352C108.366 151.352 108.75 151.421 109.102 151.56C109.454 151.699 109.752 151.901 109.998 152.168L109.622 152.544C109.184 152.101 108.632 151.88 107.966 151.88C107.523 151.88 107.12 151.981 106.758 152.184C106.395 152.387 106.11 152.664 105.902 153.016C105.699 153.368 105.598 153.763 105.598 154.2C105.598 154.637 105.699 155.032 105.902 155.384C106.11 155.736 106.395 156.013 106.758 156.216C107.12 156.419 107.523 156.52 107.966 156.52C108.638 156.52 109.19 156.296 109.622 155.848L109.998 156.224C109.752 156.491 109.451 156.696 109.094 156.84C108.742 156.979 108.358 157.048 107.942 157.048Z" fill="white"/>
<path d="M120.996 154.368L119.852 155.528V157H119.26V151.4H119.852V154.784L123.14 151.4H123.82L121.396 153.936L123.988 157H123.284L120.996 154.368Z" fill="white"/>
<path d="M135.176 157.048C134.621 157.048 134.12 156.925 133.672 156.68C133.229 156.435 132.88 156.096 132.624 155.664C132.373 155.227 132.248 154.739 132.248 154.2C132.248 153.661 132.373 153.176 132.624 152.744C132.88 152.307 133.232 151.965 133.68 151.72C134.128 151.475 134.629 151.352 135.184 151.352C135.6 151.352 135.984 151.421 136.336 151.56C136.688 151.699 136.987 151.901 137.232 152.168L136.856 152.544C136.419 152.101 135.867 151.88 135.2 151.88C134.757 151.88 134.355 151.981 133.992 152.184C133.629 152.387 133.344 152.664 133.136 153.016C132.933 153.368 132.832 153.763 132.832 154.2C132.832 154.637 132.933 155.032 133.136 155.384C133.344 155.736 133.629 156.013 133.992 156.216C134.355 156.419 134.757 156.52 135.2 156.52C135.872 156.52 136.424 156.296 136.856 155.848L137.232 156.224C136.987 156.491 136.685 156.696 136.328 156.84C135.976 156.979 135.592 157.048 135.176 157.048Z" fill="white"/>
<path d="M151.174 151.4V157H150.59V154.416H147.086V157H146.494V151.4H147.086V153.896H150.59V151.4H151.174Z" fill="white"/>
<path d="M164.514 155.504H161.394L160.722 157H160.106L162.666 151.4H163.25L165.81 157H165.186L164.514 155.504ZM164.298 155.024L162.954 152.016L161.61 155.024H164.298Z" fill="white"/>
<path d="M174.736 151.4H175.328V157H174.736V151.4Z" fill="white"/>
<path d="M189.83 151.4V157H189.342L185.742 152.456V157H185.15V151.4H185.638L189.246 155.944V151.4H189.83Z" fill="white"/>
<path fill-rule="evenodd" clip-rule="evenodd" d="M81.7071 112.293C81.3166 111.902 80.6834 111.902 80.2929 112.293C79.9024 112.683 79.9024 113.317 80.2929 113.707L92 125.414V129C92 129.552 92.4477 130 93 130C93.5523 130 94 129.552 94 129V125.414L105.707 113.707C106.098 113.317 106.098 112.683 105.707 112.293C105.317 111.902 104.683 111.902 104.293 112.293L93 123.586L81.7071 112.293ZM5 114C3.34315 114 2 115.343 2 117V120H21C21.5523 120 22 120.448 22 121C22 121.552 21.5523 122 21 122H2V125C2 126.657 3.34315 128 5 128H23H25C25.5523 128 26 128.448 26 129C26 129.552 25.5523 130 25 130H23H5C2.23858 130 0 127.761 0 125V121V117C0 114.239 2.23858 112 5 112H23H25C25.5523 112 26 112.448 26 113C26 113.552 25.5523 114 25 114H23H5ZM45 112C45.5523 112 46 112.448 46 113V115V125C46 126.657 47.3431 128 49 128H67H69C69.5523 128 70 128.448 70 129C70 129.552 69.5523 130 69 130H67H49C46.2386 130 44 127.761 44 125V115V113C44 112.448 44.4477 112 45 112ZM125 114C123.343 114 122 115.343 122 117C122 118.657 123.343 120 125 120H141C143.761 120 146 122.239 146 125C146 127.761 143.761 130 141 130H123H122C121.448 130 121 129.552 121 129C121 128.448 121.448 128 122 128H123H141C142.657 128 144 126.657 144 125C144 123.343 142.657 122 141 122H125C122.239 122 120 119.761 120 117C120 114.239 122.239 112 125 112H143H144C144.552 112 145 112.448 145 113C145 113.552 144.552 114 144 114H143H125ZM165 130C165.552 130 166 129.552 166 129V127V115V113C166 112.448 165.552 112 165 112C164.448 112 164 112.448 164 113V115V127V129C164 129.552 164.448 130 165 130ZM186 125C186 126.657 187.343 128 189 128H205C206.657 128 208 126.657 208 125V115V113C208 112.448 208.448 112 209 112C209.552 112 210 112.448 210 113V115V125C210 127.761 207.761 130 205 130H189C186.239 130 184 127.761 184 125V115V113C184 112.448 184.448 112 185 112C185.552 112 186 112.448 186 113V115V125ZM230 117C230 115.343 231.343 114 233 114H240V129C240 129.552 240.448 130 241 130C241.552 130 242 129.552 242 129V114H249C250.657 114 252 115.343 252 117V127V129C252 129.552 252.448 130 253 130C253.552 130 254 129.552 254 129V127V117C254 114.239 251.761 112 249 112H241H233C230.239 112 228 114.239 228 117V129C228 129.552 228.448 130 229 130C229.552 130 230 129.552 230 129V117Z" fill="url(#paint0_linear_414_3)"/>
<path fill-rule="evenodd" clip-rule="evenodd" d="M138.047 51.104C138.324 51.1094 138.605 51.1167 138.889 51.1245C139.255 50.713 139.759 50.2808 140.384 49.8248C140.302 46.8188 141.382 44.9146 142.975 43.1646C143.684 42.3864 144.481 41.635 145.318 40.843C145.365 40.805 145.409 40.7635 145.449 40.7193C146.295 39.9193 147.18 39.0747 148.056 38.1172C152.653 33.092 156.745 25.7225 155.795 17.812C154.273 5.12521 142.111 -0.498431 130.532 3.72218L130.501 3.73348C129.886 3.96834 129.571 4.65572 129.798 5.27641C129.959 5.71877 130.353 6.00969 130.791 6.06188C141.072 7.68944 144.966 16.1448 145.244 23.8106C145.441 29.2552 144.128 33.7533 143.549 36.709C143.333 37.8078 143.23 38.7329 143.273 39.4609C142.53 40.1642 141.824 40.8404 141.189 41.5379C138.994 43.949 137.551 46.5875 138.047 51.104ZM135.758 4.9191C144.039 8.2351 147.389 16.2781 147.658 23.7233C147.835 28.6108 146.87 32.7725 146.206 35.8108C146.132 36.15 146.062 36.4742 145.998 36.783C146.09 36.6851 146.182 36.5863 146.273 36.4863C150.444 31.9264 154.258 25.278 153.396 18.1C152.266 8.67614 144.324 3.83792 135.758 4.9191Z" fill="url(#paint1_linear_414_3)"/>
<path fill-rule="evenodd" clip-rule="evenodd" d="M144.205 33.6606L141.295 34.5617C141.548 35.1402 141.879 35.7086 142.31 36.271L143.731 35.8311C143.873 35.1683 144.038 34.4431 144.205 33.6606ZM149.765 31.9386L146.834 32.8464C146.684 33.6128 146.529 34.3352 146.382 35.0101L147.932 34.53C148.574 33.7125 149.19 32.8465 149.765 31.9386Z" fill="url(#paint2_linear_414_3)"/>
<path fill-rule="evenodd" clip-rule="evenodd" d="M144.759 30.7659L140.716 32.6263C140.831 33.2655 141.007 33.8884 141.269 34.4998L144.324 33.0939C144.476 32.3623 144.625 31.5851 144.759 30.7659ZM152.088 27.3943L147.372 29.5638C147.27 30.3604 147.15 31.1245 147.02 31.8537L150.84 30.0962C151.304 29.2253 151.725 28.3229 152.088 27.3943Z" fill="url(#paint3_linear_414_3)"/>
<path fill-rule="evenodd" clip-rule="evenodd" d="M145.167 27.4153L140.515 30.3457C140.519 30.5463 140.525 30.7451 140.535 30.9423C140.56 31.4791 140.609 32.0027 140.696 32.516L144.896 29.8703C145.008 29.086 145.102 28.2665 145.167 27.4153ZM153.4 22.2295L147.667 25.8406C147.645 26.6575 147.593 27.4504 147.521 28.2169L152.92 24.8165C153.136 23.9696 153.299 23.1062 153.4 22.2295Z" fill="url(#paint4_linear_414_3)"/>
<path fill-rule="evenodd" clip-rule="evenodd" d="M145.236 23.6019L140.556 27.488C140.557 27.5398 140.555 27.5919 140.55 27.6439C140.527 28.4699 140.504 29.2662 140.511 30.0383L145.242 26.1096C145.269 25.3643 145.272 24.5974 145.244 23.8106C145.241 23.7409 145.239 23.671 145.236 23.6019ZM153.225 16.9673L147.511 21.7124C147.586 22.3843 147.634 23.0562 147.658 23.7233C147.663 23.8469 147.667 23.9701 147.67 24.093L153.497 19.2544C153.477 18.8709 153.444 18.4862 153.397 18.1C153.351 17.7146 153.293 17.3368 153.225 16.9673Z" fill="url(#paint5_linear_414_3)"/>
<path fill-rule="evenodd" clip-rule="evenodd" d="M144.69 19.4714L140.564 23.9273C140.604 24.913 140.594 25.8563 140.573 26.7632L145.097 21.8768C145.004 21.0739 144.869 20.2694 144.69 19.4714ZM151.491 12.1247L146.643 17.3617C146.862 18.105 147.044 18.8579 147.191 19.6147L152.385 14.0049C152.126 13.3452 151.827 12.7181 151.491 12.1247Z" fill="url(#paint6_linear_414_3)"/>
<path fill-rule="evenodd" clip-rule="evenodd" d="M143.289 15.3176L140.148 19.7547C140.304 20.7215 140.415 21.6809 140.488 22.6209L144.137 17.4656C143.897 16.7352 143.615 16.0168 143.289 15.3176ZM148.278 8.2696L144.879 13.0713C145.233 13.7202 145.551 14.3877 145.834 15.0687L149.688 9.62345C149.248 9.13705 148.777 8.68551 148.278 8.2696Z" fill="url(#paint7_linear_414_3)"/>
<path fill-rule="evenodd" clip-rule="evenodd" d="M140.906 11.5476L139.043 15.0828C139.333 15.9919 139.578 16.9099 139.781 17.8274L142.177 13.2826C141.793 12.68 141.37 12.0999 140.906 11.5476ZM145.717 6.56623C145.147 6.26884 144.555 6.0074 143.945 5.78262L142.123 9.23872C142.603 9.75103 143.049 10.2879 143.461 10.8454L145.717 6.56623Z" fill="url(#paint8_linear_414_3)"/>
<path fill-rule="evenodd" clip-rule="evenodd" d="M137.584 8.59543L136.972 10.2516C137.407 11.0332 137.796 11.8368 138.144 12.6552L139.196 9.81095C138.694 9.37722 138.157 8.97068 137.584 8.59543ZM140.974 5.00185C140.324 4.89463 139.662 4.82425 138.991 4.79139L138.448 6.25808C139.026 6.60875 139.574 6.98617 140.092 7.38764L140.974 5.00185Z" fill="url(#paint9_linear_414_3)"/>
<path fill-rule="evenodd" clip-rule="evenodd" d="M142.663 40.0514C142.863 39.8594 143.067 39.6664 143.273 39.4713C143.241 38.9214 143.293 38.2593 143.413 37.4949C141.231 35.4258 140.65 33.315 140.54 30.951C140.492 29.8998 140.525 28.8049 140.558 27.6525C140.564 27.5924 140.566 27.5323 140.563 27.4725C140.596 26.3087 140.625 25.0858 140.569 23.7894C140.27 16.9851 137.958 8.87887 131.697 3.9527C121.655 -3.94788 109.076 0.668039 103.865 11.837L103.852 11.8667C103.583 12.4676 103.845 13.1766 104.444 13.4556C104.871 13.6544 105.355 13.5821 105.702 13.3095C114.126 7.19549 122.857 10.426 128.47 15.6541C132.456 19.3672 134.706 23.4777 136.384 25.9782C137.008 26.9078 137.589 27.6352 138.134 28.1202C138.105 29.1429 138.083 30.1203 138.127 31.0627C138.278 34.3197 139.121 37.2061 142.663 40.0514ZM108.409 8.99038C116.611 5.48463 124.665 8.80825 130.116 13.8859C133.695 17.2191 135.953 20.8457 137.63 23.4645C137.817 23.7569 137.997 24.036 138.17 24.2996C138.166 24.1653 138.161 24.0306 138.155 23.8952C137.884 17.7211 135.885 10.3218 130.203 5.85179C122.744 -0.0168002 113.706 2.17176 108.409 8.99038Z" fill="url(#paint10_linear_414_3)"/>
<path fill-rule="evenodd" clip-rule="evenodd" d="M134.695 23.3576L133.273 26.0515C133.861 26.2818 134.496 26.45 135.199 26.5434L135.893 25.2286C135.525 24.6588 135.129 24.0295 134.695 23.3576ZM137.412 18.2099L135.98 20.9236C136.415 21.5716 136.816 22.1925 137.189 22.7741L137.946 21.3389C137.822 20.3074 137.647 19.2586 137.412 18.2099Z" fill="url(#paint11_linear_414_3)"/>
<path fill-rule="evenodd" clip-rule="evenodd" d="M133.041 20.9178L131.495 25.0916C132.028 25.4622 132.593 25.7788 133.21 26.0266L134.379 22.8724C133.969 22.2478 133.525 21.592 133.041 20.9178ZM135.844 13.3539L134.041 18.221C134.531 18.8566 134.986 19.4825 135.41 20.09L136.87 16.1472C136.584 15.2027 136.243 14.2672 135.844 13.3539Z" fill="url(#paint12_linear_414_3)"/>
<path fill-rule="evenodd" clip-rule="evenodd" d="M130.962 18.2588L129.741 23.6197C129.886 23.7588 130.031 23.895 130.177 24.028C130.574 24.39 130.979 24.7256 131.403 25.0271L132.506 20.1872C132.03 19.5532 131.518 18.907 130.962 18.2588ZM133.123 8.77189L131.618 15.3782C132.179 15.9721 132.704 16.5692 133.194 17.1623L134.611 10.9417C134.165 10.1898 133.671 9.4638 133.123 8.77189Z" fill="url(#paint13_linear_414_3)"/>
<path fill-rule="evenodd" clip-rule="evenodd" d="M128.316 15.5123L127.751 21.5688C127.789 21.6046 127.824 21.6427 127.857 21.6834C128.424 22.2842 128.971 22.864 129.521 23.4054L130.092 17.2824C129.585 16.7355 129.046 16.1906 128.47 15.6541C128.418 15.6065 128.367 15.559 128.316 15.5123ZM129.281 5.1722L128.591 12.5675C129.119 12.99 129.628 13.4309 130.116 13.8859C130.207 13.9702 130.297 14.0547 130.386 14.1395L131.089 6.59848C130.804 6.34121 130.509 6.09227 130.203 5.85179C129.898 5.61173 129.59 5.3852 129.281 5.1722Z" fill="url(#paint14_linear_414_3)"/>
<path fill-rule="evenodd" clip-rule="evenodd" d="M125.011 12.9756L125.241 19.0434C125.965 19.7131 126.625 20.3872 127.251 21.0438L126.999 14.3895C126.366 13.8875 125.702 13.4135 125.011 12.9756ZM124.632 2.97101L124.902 10.1026C125.583 10.4737 126.244 10.8777 126.883 11.3091L126.593 3.66986C125.944 3.38589 125.289 3.15356 124.632 2.97101Z" fill="url(#paint15_linear_414_3)"/>
<path fill-rule="evenodd" clip-rule="evenodd" d="M121.085 11.0262L121.999 16.3851C122.792 16.9594 123.549 17.5594 124.264 18.1733L123.203 11.9469C122.517 11.5999 121.81 11.2907 121.085 11.0262ZM119.635 2.51378L120.623 8.31314C121.332 8.52209 122.029 8.76988 122.71 9.05193L121.589 2.4753C120.934 2.44214 120.282 2.45555 119.635 2.51378Z" fill="url(#paint16_linear_414_3)"/>
<path fill-rule="evenodd" clip-rule="evenodd" d="M116.735 10.0428L117.915 13.8609C118.763 14.2988 119.585 14.7754 120.377 15.281L118.86 10.3724C118.163 10.2171 117.454 10.1054 116.735 10.0428ZM116.619 3.11865C116.005 3.31123 115.402 3.54446 114.811 3.81642L115.965 7.54912C116.667 7.57232 117.361 7.63719 118.047 7.74025L116.619 3.11865Z" fill="url(#paint17_linear_414_3)"/>
<path fill-rule="evenodd" clip-rule="evenodd" d="M112.299 10.3016L113.036 11.9061C113.896 12.1519 114.739 12.4451 115.564 12.7785L114.298 10.0229C113.637 10.0703 112.97 10.162 112.299 10.3016ZM112.158 5.36352C111.622 5.74692 111.104 6.16494 110.606 6.61601L111.259 8.03703C111.915 7.87659 112.569 7.7568 113.219 7.67501L112.158 5.36352Z" fill="url(#paint18_linear_414_3)"/>
<path fill-rule="evenodd" clip-rule="evenodd" d="M138.118 28.9664C138.123 28.6892 138.131 28.4088 138.139 28.1249C137.728 27.7584 137.296 27.2537 136.841 26.6282C133.835 26.7067 131.932 25.6244 130.184 24.0294C129.407 23.3201 128.656 22.5224 127.865 21.6837C127.827 21.6368 127.786 21.5931 127.741 21.5527C126.942 20.706 126.099 19.8202 125.142 18.9432C120.122 14.3408 112.758 10.2406 104.847 11.1817C92.159 12.6911 86.5229 24.848 90.731 36.4319L90.7423 36.4626C90.9764 37.078 91.6635 37.3937 92.2844 37.1677C92.7268 37.0067 93.0181 36.6133 93.0708 36.1754C94.7091 25.8955 103.168 22.0097 110.834 21.7406C116.278 21.5494 120.775 22.8671 123.729 23.4493C124.828 23.6657 125.753 23.7698 126.481 23.7279C127.183 24.4718 127.859 25.1786 128.556 25.8144C130.964 28.0119 133.601 29.4573 138.118 28.9664ZM91.9334 31.2064C95.2578 22.9286 103.304 19.5871 110.749 19.3257C115.636 19.1542 119.797 20.1235 122.834 20.7906C123.173 20.865 123.497 20.9356 123.806 20.9998C123.708 20.9077 123.61 20.816 123.51 20.7244C118.954 16.5481 112.31 12.7271 105.132 13.5811C95.7076 14.7023 90.8613 22.6387 91.9334 31.2064Z" fill="url(#paint19_linear_414_3)"/>
<path fill-rule="evenodd" clip-rule="evenodd" d="M120.682 22.7899L121.58 25.7007C122.159 25.448 122.727 25.1175 123.29 24.6873L122.852 23.2666C122.189 23.1233 121.464 22.958 120.682 22.7899ZM118.966 17.2277L119.87 20.1598C120.637 20.3104 121.359 20.4664 122.034 20.6144L121.555 19.0637C120.738 18.4216 119.873 17.8037 118.966 17.2277Z" fill="url(#paint20_linear_414_3)"/>
<path fill-rule="evenodd" clip-rule="evenodd" d="M117.788 22.2326L119.644 26.2782C120.283 26.1633 120.907 25.9883 121.518 25.7274L120.115 22.6701C119.384 22.518 118.607 22.3674 117.788 22.2326ZM114.424 14.9011L116.589 19.6187C117.385 19.7213 118.149 19.8428 118.878 19.9732L117.125 16.1516C116.254 15.6861 115.352 15.2648 114.424 14.9011Z" fill="url(#paint21_linear_414_3)"/>
<path fill-rule="evenodd" clip-rule="evenodd" d="M114.438 21.8212L117.364 26.4765C117.564 26.4727 117.763 26.4665 117.96 26.4575C118.497 26.4328 119.021 26.3839 119.534 26.2974L116.893 22.0945C116.109 21.9819 115.289 21.8871 114.438 21.8212ZM109.261 13.583L112.866 19.3198C113.683 19.3432 114.476 19.3952 115.242 19.4678L111.848 14.0659C111.001 13.8491 110.138 13.6853 109.261 13.583Z" fill="url(#paint22_linear_414_3)"/>
<path fill-rule="evenodd" clip-rule="evenodd" d="M110.625 21.7488L114.506 26.4326C114.558 26.4312 114.61 26.4332 114.662 26.4387C115.488 26.4628 116.285 26.4867 117.057 26.4806L113.133 21.7454C112.388 21.7168 111.621 21.7129 110.834 21.7406C110.764 21.743 110.694 21.7458 110.625 21.7488ZM103.999 13.7524L108.738 19.4714C109.41 19.3973 110.082 19.3492 110.749 19.3257C110.873 19.3214 110.996 19.3178 111.119 19.3149L106.286 13.4831C105.903 13.5027 105.518 13.5351 105.132 13.5811C104.746 13.627 104.369 13.6842 103.999 13.7524Z" fill="url(#paint23_linear_414_3)"/>
<path fill-rule="evenodd" clip-rule="evenodd" d="M106.495 22.2904L110.946 26.4202C111.932 26.3821 112.875 26.3924 113.782 26.4145L108.9 21.8855C108.097 21.9781 107.293 22.112 106.495 22.2904ZM99.155 15.4811L104.387 20.335C105.13 20.1168 105.884 19.9354 106.64 19.7889L101.036 14.5895C100.376 14.8475 99.7488 15.1459 99.155 15.4811Z" fill="url(#paint24_linear_414_3)"/>
<path fill-rule="evenodd" clip-rule="evenodd" d="M102.339 23.6864L106.773 26.832C107.74 26.6778 108.7 26.5671 109.64 26.4956L104.488 22.8409C103.758 23.0805 103.039 23.3616 102.339 23.6864ZM95.2966 18.69L100.095 22.094C100.744 21.7406 101.412 21.4237 102.093 21.1416L96.6519 17.2814C96.165 17.721 95.713 18.1916 95.2966 18.69Z" fill="url(#paint25_linear_414_3)"/>
<path fill-rule="evenodd" clip-rule="evenodd" d="M98.5671 26.0656L102.1 27.9328C103.01 27.6432 103.928 27.3993 104.846 27.1971L100.303 24.7968C99.7005 25.1797 99.1199 25.602 98.5671 26.0656ZM93.5908 21.2497C93.2928 21.8197 93.0307 22.4112 92.8053 23.0209L96.2595 24.8463C96.7723 24.3666 97.3096 23.9215 97.8676 23.5097L93.5908 21.2497Z" fill="url(#paint26_linear_414_3)"/>
<path fill-rule="evenodd" clip-rule="evenodd" d="M95.6115 29.3847L97.267 29.9988C98.0491 29.5648 98.8531 29.176 99.6718 28.8292L96.8287 27.7745C96.3944 28.2755 95.9873 28.8118 95.6115 29.3847ZM92.0215 25.9912C91.9136 26.641 91.8425 27.3029 91.809 27.974L93.2751 28.518C93.6263 27.9402 94.0043 27.3932 94.4063 26.8758L92.0215 25.9912Z" fill="url(#paint27_linear_414_3)"/>
<path fill-rule="evenodd" clip-rule="evenodd" d="M127.067 24.3382C126.875 24.138 126.682 23.9343 126.488 23.7278C125.938 23.7591 125.276 23.7072 124.511 23.5865C122.441 25.7667 120.33 26.3462 117.966 26.4536C116.914 26.5014 115.82 26.4677 114.667 26.4335C114.607 26.4272 114.547 26.4254 114.487 26.4282C113.324 26.394 112.101 26.3636 110.804 26.4194C104 26.7121 95.8927 29.0173 90.9616 35.275C83.0531 45.3111 87.6581 57.8948 98.8219 63.115L98.8516 63.1283C99.4523 63.3983 100.161 63.1361 100.441 62.5375C100.64 62.1104 100.568 61.6265 100.296 61.2792C94.1894 52.8493 97.427 44.1212 102.659 38.5124C106.376 34.5287 110.488 32.2825 112.99 30.6058C113.92 29.9824 114.647 29.4022 115.133 28.8579C116.156 28.8877 117.133 28.9103 118.075 28.8675C121.332 28.7195 124.219 27.8781 127.067 24.3382ZM95.9794 58.5683C92.4807 50.3626 95.8109 42.3115 100.893 36.8641C104.229 33.288 107.857 31.033 110.477 29.3579C110.77 29.1708 111.049 28.9915 111.312 28.8187C111.178 28.8228 111.044 28.8277 110.908 28.8335C104.734 29.099 97.3337 31.0923 92.8593 36.7705C86.9848 44.2254 89.1656 53.2653 95.9794 58.5683Z" fill="url(#paint28_linear_414_3)"/>
<path fill-rule="evenodd" clip-rule="evenodd" d="M110.368 32.2934L113.061 33.7178C113.291 33.1299 113.46 32.4942 113.554 31.792L112.24 31.0969C111.67 31.4638 111.04 31.8594 110.368 32.2934ZM105.223 29.5716L107.935 31.0064C108.583 30.5714 109.205 30.1711 109.787 29.7991L108.352 29.0402C107.32 29.1633 106.272 29.3378 105.223 29.5716Z" fill="url(#paint29_linear_414_3)"/>
<path fill-rule="evenodd" clip-rule="evenodd" d="M107.927 33.9448L112.1 35.4947C112.471 34.9615 112.788 34.3973 113.036 33.7804L109.883 32.6092C109.258 33.0186 108.602 33.4613 107.927 33.9448ZM100.366 31.136L105.231 32.9433C105.867 32.453 106.493 31.9989 107.101 31.576L103.16 30.1119C102.215 30.3978 101.279 30.7373 100.366 31.136Z" fill="url(#paint30_linear_414_3)"/>
<path fill-rule="evenodd" clip-rule="evenodd" d="M105.266 36.0217L110.626 37.2471C110.765 37.1026 110.901 36.9577 111.034 36.8118C111.396 36.4151 111.732 36.0103 112.034 35.5863L107.196 34.48C106.561 34.9547 105.915 35.4667 105.266 36.0217ZM95.7815 33.8532L102.386 35.3633C102.981 34.8025 103.578 34.2789 104.171 33.7886L97.9524 32.3666C97.2003 32.8117 96.4738 33.3059 95.7815 33.8532Z" fill="url(#paint31_linear_414_3)"/>
<path fill-rule="evenodd" clip-rule="evenodd" d="M102.518 38.6657L108.573 39.2358C108.609 39.1982 108.647 39.1628 108.688 39.1299C109.289 38.5632 109.869 38.0173 110.411 37.4673L104.289 36.8909C103.742 37.3974 103.196 37.9367 102.659 38.5124C102.612 38.5634 102.564 38.6148 102.518 38.6657ZM92.179 37.6925L99.5732 38.3885C99.9961 37.8612 100.437 37.3522 100.893 36.8641C100.977 36.7736 101.062 36.684 101.147 36.5951L93.6067 35.8853C93.3492 36.1703 93.1 36.465 92.8593 36.7705C92.619 37.0755 92.3922 37.383 92.179 37.6925Z" fill="url(#paint32_linear_414_3)"/>
<path fill-rule="evenodd" clip-rule="evenodd" d="M99.9784 41.9687L106.046 41.7439C106.716 41.0201 107.391 40.3607 108.048 39.7353L101.394 39.9819C100.891 40.6149 100.417 41.2784 99.9784 41.9687ZM89.9741 42.3395L97.1055 42.0752C97.4772 41.3953 97.8817 40.7346 98.3136 40.0961L90.6746 40.3791C90.3901 41.0282 90.1572 41.6827 89.9741 42.3395Z" fill="url(#paint33_linear_414_3)"/>
<path fill-rule="evenodd" clip-rule="evenodd" d="M98.0258 45.8933L103.385 44.9847C103.96 44.1921 104.561 43.4357 105.175 42.7205L98.9482 43.7763C98.6007 44.4623 98.291 45.169 98.0258 45.8933ZM89.5127 47.3367L95.3125 46.3533C95.5221 45.6444 95.7705 44.9482 96.053 44.2671L89.4759 45.3823C89.4422 46.0373 89.4551 46.6898 89.5127 47.3367Z" fill="url(#paint34_linear_414_3)"/>
<path fill-rule="evenodd" clip-rule="evenodd" d="M97.0393 50.2428L100.858 49.0663C101.297 48.2187 101.774 47.397 102.281 46.6055L97.3708 48.118C97.2148 48.8151 97.1026 49.5241 97.0393 50.2428ZM90.1151 50.3533C90.3071 50.9671 90.5399 51.5708 90.8114 52.1614L94.545 51.0112C94.5688 50.3095 94.6343 49.6148 94.7379 48.9291L90.1151 50.3533Z" fill="url(#paint35_linear_414_3)"/>
<path fill-rule="evenodd" clip-rule="evenodd" d="M97.294 54.6798L98.8992 53.9442C99.1456 53.0843 99.4396 52.2409 99.7738 51.417L97.017 52.6804C97.0639 53.3417 97.155 54.0089 97.294 54.6798ZM92.3558 54.8167C92.7388 55.3526 93.1564 55.8711 93.6071 56.3696L95.0286 55.7181C94.8687 55.0611 94.7495 54.407 94.6682 53.7569L92.3558 54.8167Z" fill="url(#paint36_linear_414_3)"/>
<path fill-rule="evenodd" clip-rule="evenodd" d="M115.965 28.8891C115.688 28.8834 115.407 28.876 115.124 28.868C114.757 29.2793 114.253 29.7112 113.627 30.1668C113.707 33.1727 112.626 35.0763 111.032 36.8253C110.323 37.603 109.525 38.3539 108.687 39.1453C108.64 39.1834 108.597 39.2248 108.556 39.269C107.71 40.0685 106.824 40.9125 105.948 41.8694C101.348 46.8917 97.2512 54.2585 98.1955 62.1696C99.7101 74.8576 111.869 80.4888 123.45 76.2759L123.481 76.2645C124.096 76.0301 124.411 75.3426 124.185 74.7216C124.024 74.2795 123.63 73.9883 123.192 73.9357C112.913 72.3017 109.023 63.8435 108.751 56.1778C108.558 50.733 109.873 46.2358 110.454 43.2806C110.67 42.1818 110.774 41.2568 110.732 40.5287C111.475 39.826 112.182 39.1503 112.817 38.453C115.014 36.0435 116.458 33.4058 115.965 28.8891ZM118.224 75.075C109.946 71.7538 106.601 63.7088 106.337 56.2636C106.163 51.376 107.13 47.2149 107.796 44.1771C107.871 43.8379 107.941 43.5137 108.005 43.2049C107.913 43.3027 107.821 43.4015 107.73 43.5015C103.556 48.0587 99.7377 54.7047 100.595 61.8832C101.72 71.308 109.658 76.1509 118.224 75.075Z" fill="url(#paint37_linear_414_3)"/>
<path fill-rule="evenodd" clip-rule="evenodd" d="M109.797 46.3285L112.707 45.4292C112.454 44.8506 112.123 44.2819 111.693 43.7194L110.272 44.1583C110.129 44.821 109.964 45.5461 109.797 46.3285ZM104.235 48.047L107.167 47.141C107.317 46.3748 107.473 45.6524 107.62 44.9777L106.07 45.4568C105.428 46.2738 104.811 47.1394 104.235 48.047Z" fill="url(#paint38_linear_414_3)"/>
<path fill-rule="evenodd" clip-rule="evenodd" d="M109.241 49.2229L113.285 47.365C113.17 46.7257 112.995 46.1027 112.734 45.4911L109.677 46.8951C109.525 47.6267 109.375 48.4037 109.241 49.2229ZM101.911 52.5897L106.627 50.4233C106.729 49.6267 106.851 48.8627 106.981 48.1337L103.16 49.8887C102.695 50.7593 102.274 51.6614 101.911 52.5897Z" fill="url(#paint39_linear_414_3)"/>
<path fill-rule="evenodd" clip-rule="evenodd" d="M108.831 52.5732L113.485 49.6458C113.481 49.4452 113.475 49.2464 113.466 49.0491C113.441 48.5123 113.392 47.9886 113.305 47.4754L109.103 50.1183C108.991 50.9026 108.896 51.722 108.831 52.5732ZM100.595 57.7538L106.33 54.1463C106.353 53.3294 106.405 52.5366 106.477 51.7701L101.077 55.1671C100.86 56.0138 100.697 56.8771 100.595 57.7538Z" fill="url(#paint40_linear_414_3)"/>
<path fill-rule="evenodd" clip-rule="evenodd" d="M108.76 56.3865L113.442 52.5034C113.441 52.4516 113.443 52.3995 113.448 52.3475C113.472 51.5215 113.496 50.7252 113.489 49.9531L108.756 53.8789C108.727 54.6241 108.724 55.3911 108.752 56.1778C108.754 56.2476 108.757 56.3174 108.76 56.3865ZM100.766 63.0159L106.483 58.2746C106.409 57.6026 106.361 56.9307 106.337 56.2636C106.333 56.1399 106.329 56.0168 106.326 55.8939L100.496 60.7289C100.516 61.1124 100.549 61.4972 100.595 61.8832C100.641 62.2686 100.698 62.6462 100.766 63.0159Z" fill="url(#paint41_linear_414_3)"/>
<path fill-rule="evenodd" clip-rule="evenodd" d="M109.304 60.5174L113.432 56.0641C113.393 55.0784 113.403 54.1351 113.425 53.2282L108.898 58.1118C108.991 58.9147 109.125 59.7193 109.304 60.5174ZM102.497 67.86L107.349 62.6257C107.131 61.8826 106.949 61.1294 106.802 60.3725L101.605 65.9789C101.863 66.6391 102.162 67.2662 102.497 67.86Z" fill="url(#paint42_linear_414_3)"/>
<path fill-rule="evenodd" clip-rule="evenodd" d="M110.701 64.6723L113.844 60.237C113.69 59.2701 113.579 58.3107 113.507 57.3705L109.854 62.5236C110.094 63.2539 110.376 63.9727 110.701 64.6723ZM105.707 71.717L109.109 66.9176C108.756 66.2682 108.438 65.6007 108.156 64.9193L104.298 70.362C104.738 70.8489 105.209 71.3008 105.707 71.717Z" fill="url(#paint43_linear_414_3)"/>
<path fill-rule="evenodd" clip-rule="evenodd" d="M113.081 68.4435L114.947 64.9097C114.657 64.0005 114.413 63.0823 114.21 62.1647L111.812 66.708C112.195 67.3109 112.617 67.8908 113.081 68.4435ZM108.267 73.4217C108.838 73.7195 109.429 73.9817 110.039 74.2064L111.863 70.7517C111.383 70.2394 110.938 69.7018 110.526 69.1442L108.267 73.4217Z" fill="url(#paint44_linear_414_3)"/>
<path fill-rule="evenodd" clip-rule="evenodd" d="M116.401 71.398L117.015 69.7423C116.58 68.96 116.191 68.1566 115.844 67.338L114.791 70.1814C115.292 70.6152 115.828 71.0223 116.401 71.398ZM113.009 74.9893C113.659 75.0968 114.321 75.1675 114.992 75.2013L115.536 73.7346C114.958 73.3836 114.411 73.0061 113.893 72.6044L113.009 74.9893Z" fill="url(#paint45_linear_414_3)"/>
<path fill-rule="evenodd" clip-rule="evenodd" d="M111.342 39.9486C111.142 40.1407 110.938 40.3337 110.732 40.5287C110.764 41.0786 110.712 41.7407 110.592 42.5051C112.774 44.5743 113.355 46.685 113.465 49.0491C113.513 50.1003 113.48 51.1951 113.447 52.3475C113.441 52.4076 113.439 52.4678 113.442 52.5276C113.409 53.6913 113.38 54.9143 113.436 56.2107C113.735 63.0147 116.047 71.1214 122.308 76.0476C132.35 83.9477 144.929 79.3319 150.139 68.1632L150.153 68.1336C150.423 67.5325 150.159 66.8234 149.561 66.5443C149.134 66.3455 148.65 66.418 148.303 66.6905C139.879 72.8043 131.148 69.5743 125.535 64.3461C121.549 60.6328 119.299 56.5223 117.621 54.0219C116.996 53.0922 116.416 52.3648 115.871 51.8798C115.9 50.8571 115.922 49.8797 115.878 48.9373C115.727 45.6804 114.884 42.794 111.342 39.9486ZM145.596 71.0096C137.393 74.5157 129.34 71.192 123.889 66.1142C120.31 62.7809 118.052 59.1544 116.375 56.5355C116.188 56.2431 116.008 55.9641 115.835 55.7005C115.839 55.8348 115.844 55.9694 115.85 56.1048C116.121 62.2789 118.12 69.6782 123.802 74.1484C131.261 80.017 140.299 77.8284 145.596 71.0096Z" fill="url(#paint46_linear_414_3)"/>
<path fill-rule="evenodd" clip-rule="evenodd" d="M119.311 56.6424L120.733 53.9486C120.145 53.7182 119.509 53.55 118.807 53.4566L118.113 54.7714C118.48 55.3412 118.876 55.9706 119.311 56.6424ZM116.593 61.7902L118.026 59.0765C117.59 58.4284 117.189 57.8076 116.817 57.2259L116.059 58.6612C116.183 59.6926 116.359 60.7415 116.593 61.7902Z" fill="url(#paint47_linear_414_3)"/>
<path fill-rule="evenodd" clip-rule="evenodd" d="M120.964 59.0823L122.51 54.9085C121.977 54.5379 121.412 54.2213 120.795 53.9735L119.627 57.1277C120.037 57.7522 120.48 58.408 120.964 59.0823ZM118.162 66.6464L119.965 61.7787C119.474 61.1433 119.019 60.5174 118.596 59.91L117.135 63.8531C117.422 64.7973 117.762 65.733 118.162 66.6464Z" fill="url(#paint48_linear_414_3)"/>
<path fill-rule="evenodd" clip-rule="evenodd" d="M123.043 61.7413L124.264 56.3803C124.119 56.2412 123.974 56.1051 123.828 55.972C123.431 55.61 123.026 55.2745 122.602 54.9729L121.5 59.8129C121.975 60.4468 122.488 61.0931 123.043 61.7413ZM120.883 71.2283L122.387 64.6221C121.826 64.0277 121.302 63.4309 120.811 62.8377L119.394 69.0584C119.84 69.8105 120.335 70.536 120.883 71.2283Z" fill="url(#paint49_linear_414_3)"/>
<path fill-rule="evenodd" clip-rule="evenodd" d="M125.689 64.488L126.254 58.4312C126.217 58.3955 126.181 58.3573 126.148 58.3167C125.581 57.7159 125.035 57.136 124.484 56.5946L123.913 62.7175C124.42 63.2648 124.96 63.8096 125.536 64.3461C125.587 64.3938 125.638 64.4409 125.689 64.488ZM124.724 74.828L125.414 67.4323C124.887 67.01 124.377 66.5691 123.889 66.1142C123.798 66.0296 123.709 65.9456 123.62 65.8605L122.916 73.4017C123.201 73.6591 123.496 73.908 123.802 74.1484C124.107 74.3882 124.415 74.6147 124.724 74.828Z" fill="url(#paint50_linear_414_3)"/>
<path fill-rule="evenodd" clip-rule="evenodd" d="M128.994 67.0245L128.764 60.9566C128.04 60.2869 127.38 59.6129 126.754 58.9563L127.006 65.6104C127.639 66.1124 128.303 66.5866 128.994 67.0245ZM129.373 77.0292L129.103 69.8975C128.423 69.5266 127.762 69.1225 127.123 68.6912L127.412 76.3303C128.061 76.6142 128.716 76.8462 129.373 77.0292Z" fill="url(#paint51_linear_414_3)"/>
<path fill-rule="evenodd" clip-rule="evenodd" d="M132.92 68.9739L132.007 63.6151C131.214 63.0407 130.457 62.4408 129.741 61.8271L130.802 68.0533C131.488 68.4 132.195 68.7093 132.92 68.9739ZM134.37 77.4865L133.382 71.6868C132.673 71.4778 131.977 71.2301 131.295 70.948L132.416 77.5246C133.071 77.5578 133.724 77.5445 134.37 77.4865Z" fill="url(#paint52_linear_414_3)"/>
<path fill-rule="evenodd" clip-rule="evenodd" d="M137.27 69.9573L136.09 66.139C135.242 65.701 134.42 65.225 133.628 64.7188L135.145 69.6275C135.842 69.7827 136.551 69.8945 137.27 69.9573ZM137.386 76.8812C138 76.6891 138.603 76.4553 139.194 76.1835L138.041 72.4509C137.339 72.428 136.644 72.3627 135.958 72.26L137.386 76.8812Z" fill="url(#paint53_linear_414_3)"/>
<path fill-rule="evenodd" clip-rule="evenodd" d="M141.707 69.6982L140.97 68.0937C140.11 67.8485 139.266 67.5549 138.442 67.2215L139.707 69.9772C140.369 69.9295 141.036 69.8383 141.707 69.6982ZM141.848 74.6365C142.383 74.2529 142.901 73.8349 143.399 73.3842L142.747 71.9628C142.09 72.1235 141.436 72.2431 140.786 72.3253L141.848 74.6365Z" fill="url(#paint54_linear_414_3)"/>
<path fill-rule="evenodd" clip-rule="evenodd" d="M115.892 51.0383C115.887 51.3155 115.879 51.5959 115.871 51.8798C116.283 52.2461 116.714 52.7506 117.17 53.3761C120.176 53.2963 122.079 54.3777 123.828 55.972C124.606 56.6809 125.357 57.4783 126.148 58.3167C126.186 58.3636 126.227 58.4073 126.272 58.4476C127.071 59.294 127.915 60.1795 128.872 61.0563C133.894 65.6563 141.26 69.7537 149.171 68.809C161.858 67.2946 167.488 55.135 163.276 43.5529L163.264 43.5222C163.03 42.9069 162.343 42.5914 161.722 42.8177C161.28 42.979 160.988 43.3725 160.936 43.8104C159.302 54.091 150.845 57.9803 143.179 58.2527C137.735 58.4461 133.238 57.1303 130.283 56.5494C129.184 56.3334 128.259 56.2297 127.531 56.2719C126.829 55.5283 126.153 54.8218 125.456 54.1862C123.046 51.9898 120.409 50.5455 115.892 51.0383ZM162.076 48.7789C158.755 57.0581 150.71 60.4027 143.265 60.6672C138.378 60.8412 134.217 59.8735 131.179 59.2077C130.84 59.1334 130.516 59.063 130.207 58.999C130.305 59.091 130.404 59.1826 130.504 59.2742C135.061 63.4484 141.706 67.2668 148.884 66.4096C158.308 65.2848 163.152 57.3462 162.076 48.7789Z" fill="url(#paint55_linear_414_3)"/>
<path fill-rule="evenodd" clip-rule="evenodd" d="M133.331 57.2075L132.431 54.2971C131.853 54.55 131.284 54.8807 130.722 55.3112L131.16 56.7317C131.823 56.8747 132.548 57.0397 133.331 57.2075ZM135.049 62.7688L134.143 59.8372C133.377 59.6869 132.655 59.5313 131.98 59.3835L132.459 60.9342C133.276 61.5758 134.142 62.1931 135.049 62.7688Z" fill="url(#paint56_linear_414_3)"/>
<path fill-rule="evenodd" clip-rule="evenodd" d="M136.225 57.7636L134.367 53.7188C133.728 53.8339 133.105 54.0092 132.493 54.2704L133.897 57.3271C134.629 57.4788 135.406 57.629 136.225 57.7636ZM139.592 65.0939L137.425 60.3773C136.629 60.2747 135.865 60.1536 135.136 60.0234L136.891 63.8441C137.761 64.3092 138.664 64.7303 139.592 65.0939Z" fill="url(#paint57_linear_414_3)"/>
<path fill-rule="evenodd" clip-rule="evenodd" d="M139.575 58.1735L136.648 53.5195C136.447 53.5234 136.248 53.5297 136.051 53.5388C135.514 53.5636 134.991 53.6128 134.477 53.6995L137.12 57.9013C137.905 58.0135 138.724 58.108 139.575 58.1735ZM144.756 66.4096L141.148 60.6745C140.331 60.6515 139.538 60.5996 138.772 60.5271L142.169 65.9275C143.016 66.1444 143.879 66.3075 144.756 66.4096Z" fill="url(#paint58_linear_414_3)"/>
<path fill-rule="evenodd" clip-rule="evenodd" d="M143.388 58.2444L139.505 53.5622C139.453 53.5636 139.401 53.5616 139.349 53.5562C138.523 53.5324 137.727 53.5088 136.955 53.5152L140.881 58.2488C141.626 58.277 142.393 58.2806 143.18 58.2527C143.249 58.2502 143.319 58.2474 143.388 58.2444ZM150.018 66.238L145.276 60.5211C144.604 60.5954 143.933 60.6437 143.265 60.6672C143.142 60.6721 143.019 60.6757 142.896 60.6787L147.731 66.508C148.114 66.4887 148.499 66.4561 148.885 66.4096C149.27 66.3637 149.649 66.3063 150.018 66.238Z" fill="url(#paint59_linear_414_3)"/>
<path fill-rule="evenodd" clip-rule="evenodd" d="M147.519 57.7011L143.066 53.573C142.08 53.6116 141.137 53.6017 140.23 53.58L145.114 58.1069C145.916 58.0141 146.721 57.8798 147.519 57.7011ZM154.862 64.5073L149.628 59.6555C148.884 59.8741 148.131 60.0558 147.374 60.2026L152.98 65.3996C153.641 65.141 154.268 64.8426 154.862 64.5073Z" fill="url(#paint60_linear_414_3)"/>
<path fill-rule="evenodd" clip-rule="evenodd" d="M151.673 56.3032L147.238 53.1596C146.271 53.3142 145.312 53.4252 144.372 53.4972L149.525 57.1497C150.256 56.9098 150.974 56.6284 151.673 56.3032ZM158.718 61.2967L153.919 57.8947C153.269 58.2483 152.602 58.5656 151.921 58.8479L157.363 62.706C157.85 62.2662 158.302 61.795 158.718 61.2967Z" fill="url(#paint61_linear_414_3)"/>
<path fill-rule="evenodd" clip-rule="evenodd" d="M155.444 53.9224L151.911 52.0568C151.001 52.3468 150.083 52.5911 149.166 52.7935L153.709 55.192C154.312 54.8089 154.892 54.3864 155.444 53.9224ZM160.423 58.7363C160.72 58.1662 160.983 57.5746 161.208 56.9647L157.753 55.1409C157.24 55.6207 156.703 56.0661 156.145 56.4781L160.423 58.7363Z" fill="url(#paint62_linear_414_3)"/>
<path fill-rule="evenodd" clip-rule="evenodd" d="M158.399 50.6021L156.743 49.9887C155.961 50.4231 155.157 50.8122 154.339 51.1593L157.182 52.2129C157.616 51.7117 158.023 51.1752 158.399 50.6021ZM161.99 53.9942C162.097 53.3443 162.169 52.6824 162.202 52.0112L160.735 51.4679C160.384 52.0458 160.007 52.593 159.605 53.1104L161.99 53.9942Z" fill="url(#paint63_linear_414_3)"/>
<path fill-rule="evenodd" clip-rule="evenodd" d="M126.951 55.6619C127.143 55.8619 127.336 56.0655 127.531 56.2719C128.081 56.24 128.743 56.2914 129.507 56.4115C131.576 54.2295 133.687 53.6482 136.051 53.5388C137.102 53.4902 138.197 53.523 139.349 53.5562C139.409 53.5625 139.47 53.5641 139.529 53.5613C140.693 53.5946 141.916 53.6238 143.212 53.567C150.016 53.2687 158.122 50.9566 163.048 44.6948C170.948 34.652 166.332 22.0722 155.164 16.8615L155.134 16.8479C154.533 16.5786 153.824 16.8414 153.546 17.4404C153.346 17.8673 153.419 18.3514 153.691 18.6982C159.805 27.1231 156.575 35.854 151.347 41.4671C147.634 45.454 143.524 47.7036 141.023 49.3825C140.094 50.0067 139.367 50.5875 138.882 51.1321C137.859 51.1032 136.882 51.0815 135.939 51.1251C132.683 51.2758 129.796 52.1196 126.951 55.6619ZM158.01 21.4056C161.516 29.6084 158.192 37.6623 153.115 43.114C149.782 46.6929 146.156 48.951 143.537 50.6283C143.245 50.8156 142.966 50.995 142.702 51.1681C142.836 51.1639 142.971 51.159 143.106 51.153C149.28 50.8823 156.679 48.8827 161.149 43.2008C167.017 35.741 164.828 26.7029 158.01 21.4056Z" fill="url(#paint64_linear_414_3)"/>
<path fill-rule="evenodd" clip-rule="evenodd" d="M143.644 47.6926L140.95 46.2706C140.72 46.8586 140.552 47.4945 140.458 48.1967L141.773 48.8907C142.343 48.5233 142.972 48.1272 143.644 47.6926ZM148.792 50.4101L146.078 48.9775C145.43 49.4131 144.809 49.814 144.228 50.1865L145.663 50.9442C146.694 50.8202 147.743 50.6449 148.792 50.4101Z" fill="url(#paint65_linear_414_3)"/>
<path fill-rule="evenodd" clip-rule="evenodd" d="M146.084 46.0392L141.91 44.4928C141.539 45.0263 141.223 45.5908 140.975 46.2079L144.129 47.3765C144.754 46.9666 145.41 46.5233 146.084 46.0392ZM153.648 48.8416L148.781 47.0384C148.145 47.5293 147.519 47.9839 146.912 48.4074L150.855 49.8681C151.799 49.5814 152.735 49.2412 153.648 48.8416Z" fill="url(#paint66_linear_414_3)"/>
<path fill-rule="evenodd" clip-rule="evenodd" d="M148.742 43.96L143.382 42.7391C143.243 42.8838 143.106 43.0288 142.973 43.1747C142.611 43.5719 142.276 43.9769 141.974 44.4012L146.814 45.5034C147.448 45.0282 148.094 44.5156 148.742 43.96ZM158.229 46.1206L151.623 44.6161C151.029 45.1773 150.432 45.7015 149.838 46.1923L156.059 47.609C156.811 47.1633 157.537 46.6685 158.229 46.1206Z" fill="url(#paint67_linear_414_3)"/>
<path fill-rule="evenodd" clip-rule="evenodd" d="M151.489 41.3137L145.432 40.7487C145.397 40.7863 145.359 40.8217 145.318 40.8547C144.717 41.4219 144.137 41.9683 143.596 42.5188L149.718 43.09C150.266 42.5831 150.81 42.0432 151.347 41.4671C151.394 41.4161 151.442 41.3648 151.489 41.3137ZM161.828 42.2783L154.433 41.5884C154.011 42.1162 153.57 42.6255 153.115 43.114C153.031 43.2045 152.946 43.2942 152.861 43.3832L160.402 44.0867C160.659 43.8015 160.908 43.5065 161.148 43.2008C161.388 42.8957 161.615 42.5879 161.828 42.2783Z" fill="url(#paint68_linear_414_3)"/>
<path fill-rule="evenodd" clip-rule="evenodd" d="M154.025 38.0086L147.958 38.2385C147.288 38.9628 146.614 39.6228 145.958 40.2488L152.611 39.9966C153.114 39.3632 153.587 38.6993 154.025 38.0086ZM164.029 37.6294L156.898 37.8997C156.527 38.5799 156.123 39.2409 155.692 39.8799L163.33 39.5903C163.614 38.9411 163.847 38.2864 164.029 37.6294Z" fill="url(#paint69_linear_414_3)"/>
<path fill-rule="evenodd" clip-rule="evenodd" d="M155.974 34.0824L150.616 34.9956C150.042 35.7885 149.442 36.5454 148.828 37.2611L155.054 36.2002C155.401 35.5139 155.71 34.8069 155.974 34.0824ZM164.486 32.6318L158.687 33.62C158.478 34.3291 158.23 35.0255 157.948 35.7069L164.525 34.5862C164.558 33.9311 164.544 33.2787 164.486 32.6318Z" fill="url(#paint70_linear_414_3)"/>
<path fill-rule="evenodd" clip-rule="evenodd" d="M156.958 29.732L153.14 30.9118C152.702 31.7597 152.226 32.5817 151.72 33.3738L156.628 31.8571C156.784 31.16 156.895 30.4508 156.958 29.732ZM163.882 29.6158C163.69 29.0021 163.457 28.3986 163.184 27.8082L159.452 28.9615C159.429 29.6633 159.363 30.358 159.261 31.0438L163.882 29.6158Z" fill="url(#paint71_linear_414_3)"/>
<path fill-rule="evenodd" clip-rule="evenodd" d="M156.699 25.2952L155.094 26.0322C154.849 26.8923 154.555 27.7359 154.222 28.5601L156.978 27.2944C156.931 26.6331 156.839 25.966 156.699 25.2952ZM161.637 25.1542C161.254 24.6186 160.836 24.1005 160.385 23.6024L158.963 24.2551C159.124 24.9119 159.244 25.5659 159.326 26.2159L161.637 25.1542Z" fill="url(#paint72_linear_414_3)"/>
<defs>
<linearGradient id="paint0_linear_414_3" x1="127.007" y1="130" x2="127.007" y2="112.124" gradientUnits="userSpaceOnUse">
<stop stop-color="white"/>
<stop offset="1" stop-color="white" stop-opacity="0.37"/>
</linearGradient>
<linearGradient id="paint1_linear_414_3" x1="138.813" y1="51.2141" x2="130.802" y2="4.9563" gradientUnits="userSpaceOnUse">
<stop stop-color="white" stop-opacity="0"/>
<stop offset="0.63" stop-color="white"/>
<stop offset="0.79" stop-color="white" stop-opacity="0.74"/>
<stop offset="1" stop-color="white" stop-opacity="0.15"/>
</linearGradient>
<linearGradient id="paint2_linear_414_3" x1="141.791" y1="35.5145" x2="163.329" y2="28.1833" gradientUnits="userSpaceOnUse">
<stop stop-color="white" stop-opacity="0.2"/>
<stop offset="1" stop-color="white" stop-opacity="0.4"/>
</linearGradient>
<linearGradient id="paint3_linear_414_3" x1="140.991" y1="33.7499" x2="161.018" y2="24.3759" gradientUnits="userSpaceOnUse">
<stop stop-color="white" stop-opacity="0.2"/>
<stop offset="1" stop-color="white" stop-opacity="0.25"/>
</linearGradient>
<linearGradient id="paint4_linear_414_3" x1="140.36" y1="31.3197" x2="154.527" y2="30.3072" gradientUnits="userSpaceOnUse">
<stop stop-color="white" stop-opacity="0.26"/>
<stop offset="1" stop-color="white" stop-opacity="0.69"/>
</linearGradient>
<linearGradient id="paint5_linear_414_3" x1="140.52" y1="28.7979" x2="153.095" y2="32.4306" gradientUnits="userSpaceOnUse">
<stop stop-color="white" stop-opacity="0.29"/>
<stop offset="1" stop-color="white" stop-opacity="0.78"/>
</linearGradient>
<linearGradient id="paint6_linear_414_3" x1="140.591" y1="25.1932" x2="149.51" y2="30.0339" gradientUnits="userSpaceOnUse">
<stop stop-color="white" stop-opacity="0.31"/>
<stop offset="1" stop-color="white" stop-opacity="0.67"/>
</linearGradient>
<linearGradient id="paint7_linear_414_3" x1="140.301" y1="20.8058" x2="147.832" y2="24.2957" gradientUnits="userSpaceOnUse">
<stop stop-color="white" stop-opacity="0.3"/>
<stop offset="1" stop-color="white" stop-opacity="0.6"/>
</linearGradient>
<linearGradient id="paint8_linear_414_3" x1="134.198" y1="26.3135" x2="144.901" y2="6.17195" gradientUnits="userSpaceOnUse">
<stop stop-color="white" stop-opacity="0.2"/>
<stop offset="1" stop-color="white" stop-opacity="0.4"/>
</linearGradient>
<linearGradient id="paint9_linear_414_3" x1="122.213" y1="25.3565" x2="115.814" y2="4.29411" gradientUnits="userSpaceOnUse">
<stop stop-color="white" stop-opacity="0.2"/>
<stop offset="1" stop-color="white" stop-opacity="0.25"/>
</linearGradient>
<linearGradient id="paint10_linear_414_3" x1="143.218" y1="39.5995" x2="104.971" y2="12.3678" gradientUnits="userSpaceOnUse">
<stop stop-color="white" stop-opacity="0"/>
<stop offset="0.63" stop-color="white"/>
<stop offset="0.810645" stop-color="white" stop-opacity="0.74"/>
<stop offset="1" stop-color="white" stop-opacity="0.15"/>
</linearGradient>
<linearGradient id="paint11_linear_414_3" x1="134.297" y1="26.3749" x2="144.355" y2="5.96844" gradientUnits="userSpaceOnUse">
<stop stop-color="white" stop-opacity="0.2"/>
<stop offset="1" stop-color="white" stop-opacity="0.4"/>
</linearGradient>
<linearGradient id="paint12_linear_414_3" x1="132.484" y1="25.6921" x2="140.03" y2="4.90726" gradientUnits="userSpaceOnUse">
<stop stop-color="white" stop-opacity="0.2"/>
<stop offset="1" stop-color="white" stop-opacity="0.25"/>
</linearGradient>
<linearGradient id="paint13_linear_414_3" x1="130.32" y1="24.4188" x2="139.628" y2="13.691" gradientUnits="userSpaceOnUse">
<stop stop-color="white" stop-opacity="0.26"/>
<stop offset="1" stop-color="white" stop-opacity="0.69"/>
</linearGradient>
<linearGradient id="paint14_linear_414_3" x1="128.651" y1="22.5209" x2="140.116" y2="16.2049" gradientUnits="userSpaceOnUse">
<stop stop-color="white" stop-opacity="0.29"/>
<stop offset="1" stop-color="white" stop-opacity="0.78"/>
</linearGradient>
<linearGradient id="paint15_linear_414_3" x1="126.155" y1="19.9203" x2="135.886" y2="17.0425" gradientUnits="userSpaceOnUse">
<stop stop-color="white" stop-opacity="0.31"/>
<stop offset="1" stop-color="white" stop-opacity="0.67"/>
</linearGradient>
<linearGradient id="paint16_linear_414_3" x1="122.849" y1="17.0213" x2="130.644" y2="14.1685" gradientUnits="userSpaceOnUse">
<stop stop-color="white" stop-opacity="0.3"/>
<stop offset="1" stop-color="white" stop-opacity="0.6"/>
</linearGradient>
<linearGradient id="paint17_linear_414_3" x1="122.423" y1="25.2309" x2="115.763" y2="3.41592" gradientUnits="userSpaceOnUse">
<stop stop-color="white" stop-opacity="0.2"/>
<stop offset="1" stop-color="white" stop-opacity="0.4"/>
</linearGradient>
<linearGradient id="paint18_linear_414_3" x1="113.267" y1="33.0228" x2="93.8553" y2="22.6424" gradientUnits="userSpaceOnUse">
<stop stop-color="white" stop-opacity="0.2"/>
<stop offset="1" stop-color="white" stop-opacity="0.25"/>
</linearGradient>
<linearGradient id="paint19_linear_414_3" x1="138.212" y1="28.1852" x2="91.7569" y2="36.1942" gradientUnits="userSpaceOnUse">
<stop stop-color="white" stop-opacity="0"/>
<stop offset="0.63" stop-color="white"/>
<stop offset="0.79" stop-color="white" stop-opacity="0.74"/>
<stop offset="1" stop-color="white" stop-opacity="0.15"/>
</linearGradient>
<linearGradient id="paint20_linear_414_3" x1="122.533" y1="25.2054" x2="115.225" y2="3.66062" gradientUnits="userSpaceOnUse">
<stop stop-color="white" stop-opacity="0.2"/>
<stop offset="1" stop-color="white" stop-opacity="0.4"/>
</linearGradient>
<linearGradient id="paint21_linear_414_3" x1="120.768" y1="26.0041" x2="111.415" y2="5.96728" gradientUnits="userSpaceOnUse">
<stop stop-color="white" stop-opacity="0.2"/>
<stop offset="1" stop-color="white" stop-opacity="0.25"/>
</linearGradient>
<linearGradient id="paint22_linear_414_3" x1="118.337" y1="26.633" x2="117.34" y2="12.4646" gradientUnits="userSpaceOnUse">
<stop stop-color="white" stop-opacity="0.26"/>
<stop offset="1" stop-color="white" stop-opacity="0.69"/>
</linearGradient>
<linearGradient id="paint23_linear_414_3" x1="115.816" y1="26.4697" x2="119.462" y2="13.8983" gradientUnits="userSpaceOnUse">
<stop stop-color="white" stop-opacity="0.29"/>
<stop offset="1" stop-color="white" stop-opacity="0.78"/>
</linearGradient>
<linearGradient id="paint24_linear_414_3" x1="112.212" y1="26.3949" x2="117.062" y2="17.4807" gradientUnits="userSpaceOnUse">
<stop stop-color="white" stop-opacity="0.31"/>
<stop offset="1" stop-color="white" stop-opacity="0.67"/>
</linearGradient>
<linearGradient id="paint25_linear_414_3" x1="107.824" y1="26.6808" x2="111.322" y2="19.1532" gradientUnits="userSpaceOnUse">
<stop stop-color="white" stop-opacity="0.3"/>
<stop offset="1" stop-color="white" stop-opacity="0.6"/>
</linearGradient>
<linearGradient id="paint26_linear_414_3" x1="113.326" y1="32.7895" x2="93.1956" y2="22.0647" gradientUnits="userSpaceOnUse">
<stop stop-color="white" stop-opacity="0.2"/>
<stop offset="1" stop-color="white" stop-opacity="0.4"/>
</linearGradient>
<linearGradient id="paint27_linear_414_3" x1="112.356" y1="44.7732" x2="91.2872" y2="51.1506" gradientUnits="userSpaceOnUse">
<stop stop-color="white" stop-opacity="0.2"/>
<stop offset="1" stop-color="white" stop-opacity="0.25"/>
</linearGradient>
<linearGradient id="paint28_linear_414_3" x1="126.398" y1="23.7797" x2="99.1634" y2="62.2262" gradientUnits="userSpaceOnUse">
<stop stop-color="white" stop-opacity="0"/>
<stop offset="0.63" stop-color="white"/>
<stop offset="0.79" stop-color="white" stop-opacity="0.74"/>
<stop offset="1" stop-color="white" stop-opacity="0.15"/>
</linearGradient>
<linearGradient id="paint29_linear_414_3" x1="113.385" y1="32.6936" x2="92.9869" y2="22.6184" gradientUnits="userSpaceOnUse">
<stop stop-color="white" stop-opacity="0.2"/>
<stop offset="1" stop-color="white" stop-opacity="0.4"/>
</linearGradient>
<linearGradient id="paint30_linear_414_3" x1="112.701" y1="34.5064" x2="91.9225" y2="26.9429" gradientUnits="userSpaceOnUse">
<stop stop-color="white" stop-opacity="0.2"/>
<stop offset="1" stop-color="white" stop-opacity="0.25"/>
</linearGradient>
<linearGradient id="paint31_linear_414_3" x1="111.425" y1="36.6695" x2="100.705" y2="27.3524" gradientUnits="userSpaceOnUse">
<stop stop-color="white" stop-opacity="0.26"/>
<stop offset="1" stop-color="white" stop-opacity="0.69"/>
</linearGradient>
<linearGradient id="paint32_linear_414_3" x1="109.526" y1="38.3363" x2="103.219" y2="26.8666" gradientUnits="userSpaceOnUse">
<stop stop-color="white" stop-opacity="0.29"/>
<stop offset="1" stop-color="white" stop-opacity="0.78"/>
</linearGradient>
<linearGradient id="paint33_linear_414_3" x1="106.924" y1="40.8311" x2="104.054" y2="31.0971" gradientUnits="userSpaceOnUse">
<stop stop-color="white" stop-opacity="0.31"/>
<stop offset="1" stop-color="white" stop-opacity="0.67"/>
</linearGradient>
<linearGradient id="paint34_linear_414_3" x1="104.022" y1="44.1346" x2="101.176" y2="36.3374" gradientUnits="userSpaceOnUse">
<stop stop-color="white" stop-opacity="0.3"/>
<stop offset="1" stop-color="white" stop-opacity="0.6"/>
</linearGradient>
<linearGradient id="paint35_linear_414_3" x1="112.232" y1="44.5677" x2="90.4117" y2="51.2092" gradientUnits="userSpaceOnUse">
<stop stop-color="white" stop-opacity="0.2"/>
<stop offset="1" stop-color="white" stop-opacity="0.4"/>
</linearGradient>
<linearGradient id="paint36_linear_414_3" x1="120.016" y1="53.7303" x2="109.619" y2="73.1336" gradientUnits="userSpaceOnUse">
<stop stop-color="white" stop-opacity="0.2"/>
<stop offset="1" stop-color="white" stop-opacity="0.25"/>
</linearGradient>
<linearGradient id="paint37_linear_414_3" x1="115.185" y1="28.786" x2="122.995" y2="75.244" gradientUnits="userSpaceOnUse">
<stop stop-color="white" stop-opacity="0"/>
<stop offset="0.63" stop-color="white"/>
<stop offset="0.79" stop-color="white" stop-opacity="0.74"/>
<stop offset="1" stop-color="white" stop-opacity="0.15"/>
</linearGradient>
<linearGradient id="paint38_linear_414_3" x1="112.211" y1="44.4761" x2="90.6695" y2="51.7936" gradientUnits="userSpaceOnUse">
<stop stop-color="white" stop-opacity="0.2"/>
<stop offset="1" stop-color="white" stop-opacity="0.4"/>
</linearGradient>
<linearGradient id="paint39_linear_414_3" x1="113.011" y1="46.2413" x2="92.978" y2="55.6025" gradientUnits="userSpaceOnUse">
<stop stop-color="white" stop-opacity="0.2"/>
<stop offset="1" stop-color="white" stop-opacity="0.25"/>
</linearGradient>
<linearGradient id="paint40_linear_414_3" x1="113.641" y1="48.6718" x2="99.4731" y2="49.6753" gradientUnits="userSpaceOnUse">
<stop stop-color="white" stop-opacity="0.26"/>
<stop offset="1" stop-color="white" stop-opacity="0.69"/>
</linearGradient>
<linearGradient id="paint41_linear_414_3" x1="113.479" y1="51.1936" x2="100.906" y2="47.5529" gradientUnits="userSpaceOnUse">
<stop stop-color="white" stop-opacity="0.29"/>
<stop offset="1" stop-color="white" stop-opacity="0.78"/>
</linearGradient>
<linearGradient id="paint42_linear_414_3" x1="113.406" y1="54.7981" x2="104.489" y2="49.9518" gradientUnits="userSpaceOnUse">
<stop stop-color="white" stop-opacity="0.31"/>
<stop offset="1" stop-color="white" stop-opacity="0.67"/>
</linearGradient>
<linearGradient id="paint43_linear_414_3" x1="113.693" y1="59.1857" x2="106.164" y2="55.6911" gradientUnits="userSpaceOnUse">
<stop stop-color="white" stop-opacity="0.3"/>
<stop offset="1" stop-color="white" stop-opacity="0.6"/>
</linearGradient>
<linearGradient id="paint44_linear_414_3" x1="119.799" y1="53.682" x2="109.083" y2="73.8167" gradientUnits="userSpaceOnUse">
<stop stop-color="white" stop-opacity="0.2"/>
<stop offset="1" stop-color="white" stop-opacity="0.4"/>
</linearGradient>
<linearGradient id="paint45_linear_414_3" x1="131.783" y1="54.6466" x2="138.169" y2="75.7131" gradientUnits="userSpaceOnUse">
<stop stop-color="white" stop-opacity="0.2"/>
<stop offset="1" stop-color="white" stop-opacity="0.25"/>
</linearGradient>
<linearGradient id="paint46_linear_414_3" x1="110.579" y1="40.6008" x2="148.826" y2="67.8325" gradientUnits="userSpaceOnUse">
<stop stop-color="white" stop-opacity="0"/>
<stop offset="0.63" stop-color="white"/>
<stop offset="0.79" stop-color="white" stop-opacity="0.74"/>
<stop offset="1" stop-color="white" stop-opacity="0.15"/>
</linearGradient>
<linearGradient id="paint47_linear_414_3" x1="119.708" y1="53.6251" x2="109.65" y2="74.0316" gradientUnits="userSpaceOnUse">
<stop stop-color="white" stop-opacity="0.2"/>
<stop offset="1" stop-color="white" stop-opacity="0.4"/>
</linearGradient>
<linearGradient id="paint48_linear_414_3" x1="121.522" y1="54.308" x2="113.976" y2="75.0928" gradientUnits="userSpaceOnUse">
<stop stop-color="white" stop-opacity="0.2"/>
<stop offset="1" stop-color="white" stop-opacity="0.25"/>
</linearGradient>
<linearGradient id="paint49_linear_414_3" x1="123.686" y1="55.5813" x2="114.377" y2="66.3091" gradientUnits="userSpaceOnUse">
<stop stop-color="white" stop-opacity="0.26"/>
<stop offset="1" stop-color="white" stop-opacity="0.69"/>
</linearGradient>
<linearGradient id="paint50_linear_414_3" x1="125.354" y1="57.4791" x2="113.889" y2="63.7952" gradientUnits="userSpaceOnUse">
<stop stop-color="white" stop-opacity="0.29"/>
<stop offset="1" stop-color="white" stop-opacity="0.78"/>
</linearGradient>
<linearGradient id="paint51_linear_414_3" x1="127.851" y1="60.0797" x2="118.119" y2="62.9576" gradientUnits="userSpaceOnUse">
<stop stop-color="white" stop-opacity="0.31"/>
<stop offset="1" stop-color="white" stop-opacity="0.67"/>
</linearGradient>
<linearGradient id="paint52_linear_414_3" x1="131.156" y1="62.979" x2="123.361" y2="65.8319" gradientUnits="userSpaceOnUse">
<stop stop-color="white" stop-opacity="0.3"/>
<stop offset="1" stop-color="white" stop-opacity="0.6"/>
</linearGradient>
<linearGradient id="paint53_linear_414_3" x1="131.582" y1="54.7692" x2="138.242" y2="76.5841" gradientUnits="userSpaceOnUse">
<stop stop-color="white" stop-opacity="0.2"/>
<stop offset="1" stop-color="white" stop-opacity="0.4"/>
</linearGradient>
<linearGradient id="paint54_linear_414_3" x1="140.738" y1="46.9772" x2="160.15" y2="57.3577" gradientUnits="userSpaceOnUse">
<stop stop-color="white" stop-opacity="0.2"/>
<stop offset="1" stop-color="white" stop-opacity="0.25"/>
</linearGradient>
<linearGradient id="paint55_linear_414_3" x1="115.786" y1="51.8148" x2="161.84" y2="44.4065" gradientUnits="userSpaceOnUse">
<stop stop-color="white" stop-opacity="0"/>
<stop offset="0.63" stop-color="white"/>
<stop offset="0.79" stop-color="white" stop-opacity="0.74"/>
<stop offset="1" stop-color="white" stop-opacity="0.15"/>
</linearGradient>
<linearGradient id="paint56_linear_414_3" x1="131.478" y1="54.7928" x2="138.796" y2="76.3345" gradientUnits="userSpaceOnUse">
<stop stop-color="white" stop-opacity="0.2"/>
<stop offset="1" stop-color="white" stop-opacity="0.4"/>
</linearGradient>
<linearGradient id="paint57_linear_414_3" x1="133.243" y1="53.9933" x2="142.605" y2="74.0262" gradientUnits="userSpaceOnUse">
<stop stop-color="white" stop-opacity="0.2"/>
<stop offset="1" stop-color="white" stop-opacity="0.25"/>
</linearGradient>
<linearGradient id="paint58_linear_414_3" x1="135.674" y1="53.3634" x2="136.677" y2="67.5314" gradientUnits="userSpaceOnUse">
<stop stop-color="white" stop-opacity="0.26"/>
<stop offset="1" stop-color="white" stop-opacity="0.69"/>
</linearGradient>
<linearGradient id="paint59_linear_414_3" x1="138.195" y1="53.5257" x2="134.555" y2="66.0986" gradientUnits="userSpaceOnUse">
<stop stop-color="white" stop-opacity="0.29"/>
<stop offset="1" stop-color="white" stop-opacity="0.78"/>
</linearGradient>
<linearGradient id="paint60_linear_414_3" x1="141.8" y1="53.5989" x2="136.953" y2="62.5151" gradientUnits="userSpaceOnUse">
<stop stop-color="white" stop-opacity="0.31"/>
<stop offset="1" stop-color="white" stop-opacity="0.67"/>
</linearGradient>
<linearGradient id="paint61_linear_414_3" x1="146.187" y1="53.3112" x2="142.692" y2="60.8403" gradientUnits="userSpaceOnUse">
<stop stop-color="white" stop-opacity="0.3"/>
<stop offset="1" stop-color="white" stop-opacity="0.6"/>
</linearGradient>
<linearGradient id="paint62_linear_414_3" x1="140.683" y1="47.2048" x2="160.818" y2="57.9211" gradientUnits="userSpaceOnUse">
<stop stop-color="white" stop-opacity="0.2"/>
<stop offset="1" stop-color="white" stop-opacity="0.4"/>
</linearGradient>
<linearGradient id="paint63_linear_414_3" x1="141.647" y1="35.2207" x2="162.714" y2="28.8344" gradientUnits="userSpaceOnUse">
<stop stop-color="white" stop-opacity="0.2"/>
<stop offset="1" stop-color="white" stop-opacity="0.25"/>
</linearGradient>
<linearGradient id="paint64_linear_414_3" x1="127.399" y1="56.4206" x2="154.634" y2="18.3746" gradientUnits="userSpaceOnUse">
<stop stop-color="white" stop-opacity="0"/>
<stop offset="0.63" stop-color="white"/>
<stop offset="0.79" stop-color="white" stop-opacity="0.74"/>
<stop offset="1" stop-color="white" stop-opacity="0.15"/>
</linearGradient>
<linearGradient id="paint65_linear_414_3" x1="140.627" y1="47.295" x2="161.033" y2="57.3531" gradientUnits="userSpaceOnUse">
<stop stop-color="white" stop-opacity="0.2"/>
<stop offset="1" stop-color="white" stop-opacity="0.4"/>
</linearGradient>
<linearGradient id="paint66_linear_414_3" x1="141.31" y1="45.4815" x2="162.094" y2="53.0276" gradientUnits="userSpaceOnUse">
<stop stop-color="white" stop-opacity="0.2"/>
<stop offset="1" stop-color="white" stop-opacity="0.25"/>
</linearGradient>
<linearGradient id="paint67_linear_414_3" x1="142.583" y1="43.3175" x2="153.31" y2="52.6255" gradientUnits="userSpaceOnUse">
<stop stop-color="white" stop-opacity="0.26"/>
<stop offset="1" stop-color="white" stop-opacity="0.69"/>
</linearGradient>
<linearGradient id="paint68_linear_414_3" x1="144.48" y1="41.6491" x2="150.797" y2="53.1135" gradientUnits="userSpaceOnUse">
<stop stop-color="white" stop-opacity="0.29"/>
<stop offset="1" stop-color="white" stop-opacity="0.78"/>
</linearGradient>
<linearGradient id="paint69_linear_414_3" x1="147.081" y1="39.152" x2="149.959" y2="48.8836" gradientUnits="userSpaceOnUse">
<stop stop-color="white" stop-opacity="0.31"/>
<stop offset="1" stop-color="white" stop-opacity="0.67"/>
</linearGradient>
<linearGradient id="paint70_linear_414_3" x1="149.98" y1="35.8461" x2="152.833" y2="43.6409" gradientUnits="userSpaceOnUse">
<stop stop-color="white" stop-opacity="0.3"/>
<stop offset="1" stop-color="white" stop-opacity="0.6"/>
</linearGradient>
<linearGradient id="paint71_linear_414_3" x1="141.77" y1="35.42" x2="163.585" y2="28.7601" gradientUnits="userSpaceOnUse">
<stop stop-color="white" stop-opacity="0.2"/>
<stop offset="1" stop-color="white" stop-opacity="0.4"/>
</linearGradient>
<linearGradient id="paint72_linear_414_3" x1="133.978" y1="26.2639" x2="144.358" y2="6.85184" gradientUnits="userSpaceOnUse">
<stop stop-color="white" stop-opacity="0.2"/>
<stop offset="1" stop-color="white" stop-opacity="0.25"/>
</linearGradient>
</defs>
</svg>
