<svg width="380" height="380" viewBox="0 0 380 380" fill="none" xmlns="http://www.w3.org/2000/svg">
<path fill-rule="evenodd" clip-rule="evenodd" d="M242.473 242.744C243.79 242.77 245.122 242.804 246.471 242.842C248.209 240.887 250.604 238.834 253.573 236.668C253.185 222.389 258.316 213.344 265.883 205.032C269.248 201.336 273.033 197.766 277.013 194.004C277.235 193.824 277.443 193.627 277.634 193.417C281.652 189.617 285.855 185.605 290.016 181.057C311.85 157.187 331.289 122.182 326.779 84.6072C319.545 24.3447 261.776 -2.36755 206.777 17.6804L206.631 17.734C203.709 18.8496 202.213 22.1147 203.29 25.0629C204.057 27.1642 205.927 28.546 208.007 28.7939C256.842 36.5249 275.34 76.6878 276.657 113.101C277.592 138.962 271.357 160.328 268.606 174.368C267.583 179.587 267.094 183.981 267.296 187.44C263.767 190.78 260.413 193.992 257.397 197.305C246.971 208.758 240.119 221.291 242.473 242.744ZM231.603 23.3657C270.936 39.1167 286.848 77.3211 288.125 112.686C288.966 135.901 284.383 155.669 281.23 170.101C280.878 171.712 280.544 173.253 280.241 174.719C280.678 174.254 281.113 173.785 281.548 173.31C301.361 151.65 319.477 120.07 315.382 85.9751C310.011 41.2117 272.291 18.2301 231.603 23.3657Z" fill="url(#paint0_linear_769_1811)"/>
<path fill-rule="evenodd" clip-rule="evenodd" d="M271.724 159.888L257.902 164.168C259.105 166.916 260.678 169.616 262.724 172.287L269.47 170.198C270.148 167.049 270.929 163.605 271.724 159.888ZM298.136 151.708L284.212 156.02C283.501 159.661 282.764 163.092 282.064 166.298L289.427 164.017C292.474 160.135 295.404 156.021 298.136 151.708Z" fill="url(#paint1_linear_769_1811)"/>
<path fill-rule="evenodd" clip-rule="evenodd" d="M274.357 146.138L255.15 154.975C255.699 158.011 256.533 160.97 257.776 163.874L272.291 157.196C273.009 153.721 273.721 150.029 274.357 146.138ZM309.166 130.123L286.767 140.428C286.284 144.212 285.711 147.841 285.094 151.305L303.238 142.957C305.445 138.82 307.442 134.534 309.166 130.123Z" fill="url(#paint2_linear_769_1811)"/>
<path fill-rule="evenodd" clip-rule="evenodd" d="M276.294 130.223L254.196 144.142C254.215 145.095 254.245 146.039 254.289 146.976C254.409 149.526 254.644 152.013 255.057 154.451L275.008 141.884C275.539 138.158 275.985 134.266 276.294 130.223ZM315.398 105.59L288.168 122.743C288.061 126.623 287.817 130.389 287.476 134.03L313.119 117.878C314.144 113.856 314.919 109.755 315.398 105.59Z" fill="url(#paint3_linear_769_1811)"/>
<path fill-rule="evenodd" clip-rule="evenodd" d="M276.619 112.109L254.391 130.568C254.397 130.814 254.388 131.061 254.362 131.308C254.252 135.232 254.142 139.014 254.175 142.682L276.648 124.02C276.78 120.48 276.794 116.837 276.659 113.1C276.647 112.769 276.634 112.437 276.619 112.109ZM314.569 80.5946L287.428 103.134C287.784 106.325 288.013 109.517 288.128 112.685C288.151 113.273 288.168 113.858 288.182 114.442L315.86 91.4583C315.765 89.6365 315.608 87.8093 315.387 85.9749C315.169 84.1443 314.893 82.3498 314.569 80.5946Z" fill="url(#paint4_linear_769_1811)"/>
<path fill-rule="evenodd" clip-rule="evenodd" d="M274.025 92.4894L254.431 113.655C254.617 118.337 254.573 122.817 254.473 127.125L275.961 103.915C275.517 100.101 274.877 96.2798 274.025 92.4894ZM306.334 57.5923L283.303 82.4682C284.343 85.9986 285.209 89.575 285.908 93.1697L310.578 66.5232C309.349 63.3895 307.929 60.4109 306.334 57.5923Z" fill="url(#paint5_linear_769_1811)"/>
<path fill-rule="evenodd" clip-rule="evenodd" d="M267.373 72.7585L252.454 93.8348C253.191 98.4269 253.721 102.984 254.066 107.449L271.4 82.9616C270.258 79.4923 268.92 76.0798 267.373 72.7585ZM291.071 39.2806L274.925 62.0888C276.607 65.1711 278.116 68.3414 279.459 71.5763L297.768 45.7114C295.679 43.401 293.438 41.2561 291.071 39.2806Z" fill="url(#paint6_linear_769_1811)"/>
<path fill-rule="evenodd" clip-rule="evenodd" d="M256.054 54.851L247.203 71.6434C248.583 75.9612 249.746 80.322 250.711 84.68L262.09 63.0921C260.268 60.2299 258.259 57.4745 256.054 54.851ZM278.905 31.1894C276.196 29.7769 273.385 28.535 270.487 27.4673L261.835 43.8838C264.115 46.3173 266.232 48.8673 268.191 51.5157L278.905 31.1894Z" fill="url(#paint7_linear_769_1811)"/>
<path fill-rule="evenodd" clip-rule="evenodd" d="M240.274 40.8283L237.365 48.6949C239.431 52.4075 241.282 56.2249 242.933 60.112L247.929 46.602C245.547 44.5418 242.998 42.6107 240.274 40.8283ZM256.376 23.7587C253.289 23.2494 250.144 22.9152 246.956 22.7591L244.38 29.7259C247.126 31.3915 249.726 33.1843 252.185 35.0913L256.376 23.7587Z" fill="url(#paint8_linear_769_1811)"/>
<path fill-rule="evenodd" clip-rule="evenodd" d="M264.4 190.244C265.35 189.332 266.317 188.415 267.297 187.489C267.146 184.877 267.39 181.732 267.96 178.101C257.597 168.272 254.836 158.246 254.316 147.017C254.085 142.024 254.241 136.823 254.399 131.35C254.428 131.064 254.436 130.778 254.423 130.494C254.581 124.966 254.72 119.157 254.45 113C253.033 80.6794 242.051 42.1746 212.31 18.7753C164.61 -18.7524 104.859 3.17319 80.1105 56.2259L80.0457 56.367C78.7666 59.2212 80.015 62.5886 82.86 63.914C84.8877 64.8583 87.187 64.5148 88.8342 63.2202C128.85 34.1786 170.319 49.5233 196.98 74.3568C215.916 91.9944 226.601 111.519 234.575 123.396C237.54 127.812 240.298 131.267 242.885 133.571C242.748 138.429 242.645 143.072 242.852 147.548C243.568 163.018 247.575 176.729 264.4 190.244ZM101.694 42.7043C140.654 26.052 178.908 41.8392 204.802 65.9578C221.8 81.791 232.526 99.0169 240.492 111.456C241.382 112.845 242.234 114.171 243.056 115.423C243.036 114.785 243.013 114.146 242.984 113.502C241.699 84.1751 232.201 49.0284 205.214 27.796C169.782 -0.0798009 126.854 10.3159 101.694 42.7043Z" fill="url(#paint9_linear_769_1811)"/>
<path fill-rule="evenodd" clip-rule="evenodd" d="M226.549 110.949L219.794 123.744C222.587 124.839 225.608 125.638 228.943 126.081L232.24 119.836C230.495 117.129 228.613 114.14 226.549 110.949ZM239.457 86.497L232.652 99.387C234.722 102.465 236.625 105.414 238.395 108.177L241.994 101.36C241.405 96.4603 240.572 91.4785 239.457 86.497Z" fill="url(#paint10_linear_769_1811)"/>
<path fill-rule="evenodd" clip-rule="evenodd" d="M218.696 99.3596L211.351 119.185C213.885 120.945 216.566 122.449 219.497 123.626L225.048 108.644C223.101 105.677 220.995 102.562 218.696 99.3596ZM232.007 63.4309L223.442 86.5499C225.774 89.5688 227.933 92.542 229.945 95.4277L236.883 76.6994C235.521 72.2132 233.905 67.7694 232.007 63.4309Z" fill="url(#paint11_linear_769_1811)"/>
<path fill-rule="evenodd" clip-rule="evenodd" d="M208.82 86.7295L203.021 112.194C203.708 112.854 204.397 113.501 205.09 114.133C206.976 115.853 208.9 117.447 210.915 118.879L216.151 95.8891C213.894 92.878 211.459 89.8083 208.82 86.7295ZM219.083 41.6666L211.936 73.0464C214.602 75.8676 217.092 78.7039 219.423 81.5211L226.152 51.973C224.035 48.4018 221.685 44.9531 219.083 41.6666Z" fill="url(#paint12_linear_769_1811)"/>
<path fill-rule="evenodd" clip-rule="evenodd" d="M196.251 73.6835L193.567 102.452C193.746 102.622 193.914 102.803 194.071 102.996C196.765 105.85 199.36 108.604 201.975 111.176L204.688 82.0913C202.281 79.4934 199.716 76.9052 196.98 74.3567C196.737 74.1305 196.493 73.9053 196.251 73.6835ZM200.833 24.5679L197.556 59.6954C200.063 61.7025 202.482 63.7966 204.802 65.9578C205.233 66.3583 205.659 66.7597 206.081 67.1626L209.423 31.3427C208.068 30.1206 206.667 28.9382 205.214 27.7959C203.765 26.6556 202.303 25.5796 200.833 24.5679Z" fill="url(#paint13_linear_769_1811)"/>
<path fill-rule="evenodd" clip-rule="evenodd" d="M180.552 61.634L181.644 90.4561C185.085 93.6374 188.22 96.839 191.193 99.958L189.995 68.3503C186.987 65.9656 183.833 63.7143 180.552 61.634ZM178.751 14.1123L180.035 47.9874C183.266 49.7503 186.406 51.6693 189.441 53.7183L188.065 17.4319C184.981 16.083 181.872 14.9794 178.751 14.1123Z" fill="url(#paint14_linear_769_1811)"/>
<path fill-rule="evenodd" clip-rule="evenodd" d="M161.905 52.3743L166.243 77.8292C170.01 80.5574 173.605 83.4073 177.004 86.3231L171.965 56.7478C168.705 55.0996 165.347 53.6311 161.905 52.3743ZM155.015 11.9405L159.709 39.4875C163.077 40.48 166.385 41.657 169.622 42.9967L164.298 11.7577C161.187 11.6002 158.088 11.6639 155.015 11.9405Z" fill="url(#paint15_linear_769_1811)"/>
<path fill-rule="evenodd" clip-rule="evenodd" d="M141.242 47.7033L146.846 65.8394C150.873 67.9191 154.778 70.183 158.54 72.5846L151.336 49.2691C148.025 48.5311 144.656 48.0009 141.242 47.7033ZM140.69 14.8136C137.775 15.7283 134.908 16.8362 132.104 18.128L137.582 35.8583C140.915 35.9685 144.215 36.2767 147.473 36.7662L140.69 14.8136Z" fill="url(#paint16_linear_769_1811)"/>
<path fill-rule="evenodd" clip-rule="evenodd" d="M120.168 48.9326L123.669 56.5542C127.755 57.7214 131.762 59.1145 135.677 60.6981L129.664 47.6087C126.523 47.8339 123.355 48.2695 120.168 48.9326ZM119.499 25.4767C116.955 27.2979 114.494 29.2835 112.127 31.4261L115.228 38.1759C118.348 37.4138 121.454 36.8448 124.542 36.4563L119.499 25.4767Z" fill="url(#paint17_linear_769_1811)"/>
<path fill-rule="evenodd" clip-rule="evenodd" d="M242.808 137.591C242.836 136.274 242.872 134.942 242.91 133.594C240.958 131.853 238.907 129.455 236.744 126.484C222.467 126.857 213.428 121.716 205.123 114.14C201.431 110.771 197.866 106.982 194.109 102.998C193.928 102.775 193.732 102.567 193.522 102.376C189.726 98.3535 185.719 94.1459 181.176 89.9805C157.331 68.1188 122.349 48.6428 84.7716 53.1133C24.5053 60.2826 -2.2663 118.028 17.722 173.051L17.7757 173.197C18.8881 176.121 22.1515 177.62 25.1007 176.547C27.2023 175.782 28.5861 173.913 28.8363 171.833C36.6181 123.004 76.7982 104.546 113.21 103.268C139.071 102.36 160.429 108.619 174.464 111.384C179.683 112.412 184.076 112.907 187.534 112.708C190.87 116.241 194.079 119.599 197.389 122.619C208.829 133.057 221.354 139.922 242.808 137.591ZM23.4334 148.23C39.2247 108.911 77.4435 93.0389 112.807 91.7973C136.022 90.9824 155.784 95.5866 170.211 98.7553C171.822 99.109 173.362 99.4442 174.828 99.7489C174.364 99.3116 173.895 98.8761 173.42 98.4408C151.783 78.6035 120.224 60.4539 86.1273 64.5103C41.3611 69.8359 18.3412 107.534 23.4334 148.23Z" fill="url(#paint18_linear_769_1811)"/>
<path fill-rule="evenodd" clip-rule="evenodd" d="M159.988 108.252L164.254 122.078C167.003 120.878 169.704 119.308 172.378 117.264L170.296 110.516C167.148 109.835 163.704 109.05 159.988 108.252ZM151.836 81.8314L156.134 95.7592C159.773 96.4743 163.204 97.2152 166.409 97.9184L164.136 90.5525C160.257 87.5027 156.146 84.5673 151.836 81.8314Z" fill="url(#paint19_linear_769_1811)"/>
<path fill-rule="evenodd" clip-rule="evenodd" d="M146.244 105.605L155.06 124.821C158.097 124.275 161.057 123.444 163.962 122.205L157.299 107.683C153.825 106.96 150.134 106.245 146.244 105.605ZM130.266 70.78L140.547 93.1886C144.33 93.6761 147.959 94.2531 151.422 94.8729L143.093 76.7199C138.958 74.509 134.674 72.5077 130.266 70.78Z" fill="url(#paint20_linear_769_1811)"/>
<path fill-rule="evenodd" clip-rule="evenodd" d="M130.331 103.651L144.227 125.764C145.18 125.745 146.124 125.716 147.062 125.673C149.611 125.556 152.099 125.324 154.537 124.913L141.991 104.949C138.266 104.414 134.374 103.964 130.331 103.651ZM105.74 64.5196L122.864 91.769C126.744 91.8803 130.51 92.1271 134.15 92.4723L118.026 66.8134C114.004 65.7835 109.904 65.0051 105.74 64.5196Z" fill="url(#paint21_linear_769_1811)"/>
<path fill-rule="evenodd" clip-rule="evenodd" d="M112.22 103.307L130.655 125.555C130.901 125.548 131.148 125.558 131.396 125.584C135.319 125.699 139.101 125.812 142.769 125.783L124.131 103.291C120.592 103.155 116.948 103.137 113.211 103.268C112.88 103.279 112.548 103.293 112.22 103.307ZM80.7454 65.3239L103.256 92.4895C106.448 92.1374 109.639 91.9087 112.808 91.7974C113.396 91.7767 113.981 91.7598 114.564 91.746L91.6105 64.045C89.7884 64.138 87.9612 64.292 86.1268 64.5104C84.2956 64.7282 82.5011 65.0002 80.7454 65.3239Z" fill="url(#paint22_linear_769_1811)"/>
<path fill-rule="evenodd" clip-rule="evenodd" d="M92.5993 105.88L113.744 125.496C118.426 125.315 122.907 125.364 127.215 125.469L104.027 103.956C100.213 104.396 96.3906 105.032 92.5993 105.88ZM57.7363 73.5355L82.5878 96.5916C86.1194 95.5549 89.6969 94.6932 93.2922 93.9974L66.6718 69.3003C63.5367 70.5258 60.5566 71.9433 57.7363 73.5355Z" fill="url(#paint23_linear_769_1811)"/>
<path fill-rule="evenodd" clip-rule="evenodd" d="M72.8619 112.511L93.9221 127.452C98.5154 126.719 103.073 126.194 107.539 125.854L83.0693 108.494C79.5986 109.632 76.1846 110.967 72.8619 112.511ZM39.4089 88.7776L62.1999 104.947C65.2839 103.268 68.456 101.763 71.6923 100.423L45.8466 82.0868C43.5339 84.1745 41.3868 86.4103 39.4089 88.7776Z" fill="url(#paint24_linear_769_1811)"/>
<path fill-rule="evenodd" clip-rule="evenodd" d="M54.9442 123.812L71.727 132.681C76.0463 131.305 80.4086 130.147 84.7674 129.187L63.1916 117.785C60.3277 119.604 57.5699 121.609 54.9442 123.812ZM31.307 100.936C29.8913 103.644 28.6465 106.453 27.5757 109.35L43.9832 118.02C46.4187 115.742 48.9713 113.627 51.6215 111.671L31.307 100.936Z" fill="url(#paint25_linear_769_1811)"/>
<path fill-rule="evenodd" clip-rule="evenodd" d="M40.9052 139.578L48.7686 142.495C52.4836 140.433 56.303 138.586 60.1915 136.939L46.6869 131.929C44.6241 134.309 42.6905 136.856 40.9052 139.578ZM23.8526 123.458C23.3401 126.545 23.0024 129.689 22.8431 132.877L29.8071 135.46C31.4756 132.716 33.271 130.118 35.1805 127.66L23.8526 123.458Z" fill="url(#paint26_linear_769_1811)"/>
<path fill-rule="evenodd" clip-rule="evenodd" d="M190.319 115.607C189.408 114.656 188.492 113.688 187.566 112.707C184.954 112.856 181.809 112.609 178.179 112.036C168.343 122.392 158.315 125.145 147.086 125.655C142.093 125.882 136.893 125.721 131.42 125.559C131.134 125.529 130.848 125.521 130.564 125.534C125.037 125.371 119.229 125.227 113.071 125.492C80.7516 126.882 42.2402 137.832 18.8175 167.556C-18.7479 215.228 3.12602 275 56.1543 299.796L56.2951 299.859C59.1482 301.142 62.5166 299.897 63.8442 297.053C64.7902 295.024 64.4487 292.726 63.1553 291.076C34.1495 251.034 49.5282 209.576 74.3821 182.934C92.0349 164.012 111.567 153.342 123.45 145.377C127.868 142.416 131.325 139.661 133.631 137.075C138.489 137.217 143.131 137.324 147.607 137.121C163.077 136.418 176.79 132.421 190.319 115.607ZM42.652 278.2C26.0332 239.223 41.8517 200.98 65.9906 175.105C81.8367 158.118 99.0707 147.407 111.516 139.45C112.906 138.562 114.232 137.71 115.484 136.889C114.847 136.908 114.207 136.931 113.564 136.959C84.2377 138.22 49.0852 147.689 27.8316 174.66C-0.0722458 210.071 10.2866 253.01 42.652 278.2Z" fill="url(#paint27_linear_769_1811)"/>
<path fill-rule="evenodd" clip-rule="evenodd" d="M110.997 153.394L123.787 160.16C124.884 157.367 125.685 154.348 126.132 151.012L119.889 147.71C117.181 149.453 114.19 151.332 110.997 153.394ZM86.5564 140.466L99.4407 147.281C102.521 145.214 105.471 143.313 108.236 141.546L101.421 137.941C96.5214 138.526 91.539 139.355 86.5564 140.466Z" fill="url(#paint28_linear_769_1811)"/>
<path fill-rule="evenodd" clip-rule="evenodd" d="M99.4032 161.238L119.223 168.6C120.985 166.067 122.491 163.387 123.671 160.457L108.693 154.894C105.725 156.838 102.608 158.941 99.4032 161.238ZM63.4861 147.896L86.5976 156.481C89.6185 154.152 92.5934 151.995 95.4811 149.986L76.7586 143.031C72.2712 144.39 67.826 146.002 63.4861 147.896Z" fill="url(#paint29_linear_769_1811)"/>
<path fill-rule="evenodd" clip-rule="evenodd" d="M86.7635 171.103L112.222 176.924C112.882 176.238 113.53 175.549 114.162 174.856C115.883 172.972 117.479 171.049 118.913 169.035L95.9288 163.78C92.9159 166.035 89.8445 168.467 86.7635 171.103ZM41.7122 160.803L73.0842 167.976C75.9075 165.312 78.7457 162.825 81.5646 160.496L52.0239 153.742C48.4513 155.856 45.0008 158.203 41.7122 160.803Z" fill="url(#paint30_linear_769_1811)"/>
<path fill-rule="evenodd" clip-rule="evenodd" d="M73.7088 183.662L102.473 186.37C102.643 186.192 102.824 186.024 103.017 185.867C105.873 183.175 108.63 180.582 111.203 177.97L82.1229 175.232C79.5231 177.638 76.9331 180.2 74.3822 182.934C74.1561 183.176 73.9306 183.42 73.7088 183.662ZM24.6001 179.039L59.7227 182.346C61.7317 179.841 63.8276 177.423 65.9907 175.104C66.3915 174.675 66.7932 174.249 67.1963 173.827L31.3817 170.455C30.1588 171.809 28.975 173.209 27.8316 174.66C26.6903 176.108 25.6129 177.569 24.6001 179.039Z" fill="url(#paint31_linear_769_1811)"/>
<path fill-rule="evenodd" clip-rule="evenodd" d="M61.6474 199.352L90.4685 198.284C93.6524 194.846 96.8564 191.714 99.9777 188.743L68.371 189.914C65.9838 192.921 63.7301 196.072 61.6474 199.352ZM14.1271 201.113L48.001 199.857C49.7667 196.628 51.6882 193.49 53.7397 190.457L17.4544 191.801C16.1031 194.884 14.9967 197.993 14.1271 201.113Z" fill="url(#paint32_linear_769_1811)"/>
<path fill-rule="evenodd" clip-rule="evenodd" d="M52.3726 217.993L77.8295 213.677C80.5607 209.913 83.4132 206.32 86.332 202.923L56.7541 207.938C55.1034 211.196 53.6321 214.553 52.3726 217.993ZM11.9354 224.849L39.4846 220.178C40.4799 216.811 41.6597 213.504 43.0019 210.269L11.7607 215.566C11.6003 218.678 11.6617 221.777 11.9354 224.849Z" fill="url(#paint33_linear_769_1811)"/>
<path fill-rule="evenodd" clip-rule="evenodd" d="M47.6861 238.654L65.8268 233.065C67.9099 229.039 70.1773 225.136 72.5821 221.376L49.2606 228.561C48.5197 231.872 47.9868 235.239 47.6861 238.654ZM14.7961 239.178C15.7083 242.094 16.8139 244.961 18.1034 247.767L35.8383 242.303C35.951 238.97 36.2621 235.67 36.7545 232.413L14.7961 239.178Z" fill="url(#paint34_linear_769_1811)"/>
<path fill-rule="evenodd" clip-rule="evenodd" d="M48.8972 259.729L56.5219 256.235C57.6924 252.15 59.0889 248.145 60.6759 244.231L47.5813 250.232C47.804 253.373 48.2367 256.542 48.8972 259.729ZM25.4408 260.379C27.26 262.925 29.2436 265.388 31.3841 267.756L38.1365 264.661C37.377 261.54 36.8106 258.433 36.4247 255.345L25.4408 260.379Z" fill="url(#paint35_linear_769_1811)"/>
<path fill-rule="evenodd" clip-rule="evenodd" d="M137.584 137.223C136.267 137.196 134.936 137.161 133.587 137.123C131.847 139.077 129.451 141.128 126.48 143.292C126.859 157.571 121.723 166.612 114.151 174.92C110.784 178.614 106.996 182.181 103.014 185.94C102.791 186.121 102.583 186.318 102.392 186.528C98.3721 190.325 94.1662 194.334 90.003 198.88C68.1529 222.736 48.693 257.728 53.1787 295.306C60.3731 355.574 118.126 382.322 173.137 362.311L173.283 362.256C176.206 361.143 177.704 357.878 176.629 354.928C175.863 352.828 173.994 351.445 171.914 351.195C123.085 343.433 104.612 303.257 103.318 266.845C102.399 240.982 108.649 219.62 111.408 205.583C112.434 200.364 112.927 195.97 112.726 192.512C116.258 189.174 119.614 185.964 122.632 182.652C133.065 171.207 139.925 158.678 137.584 137.223ZM148.315 356.607C108.992 340.831 93.1052 302.617 91.8488 267.252C91.0239 244.036 95.6197 224.271 98.7818 209.841C99.135 208.23 99.4693 206.69 99.7734 205.223C99.3364 205.688 98.9012 206.157 98.4662 206.632C78.6394 228.279 60.504 259.848 64.5745 293.946C69.9186 338.713 107.624 361.717 148.315 356.607Z" fill="url(#paint36_linear_769_1811)"/>
<path fill-rule="evenodd" clip-rule="evenodd" d="M108.283 220.061L122.107 215.789C120.906 213.04 119.335 210.339 117.29 207.667L110.543 209.752C109.863 212.9 109.08 216.344 108.283 220.061ZM81.8656 228.223L95.7917 223.92C96.5053 220.28 97.2445 216.849 97.9466 213.644L90.5816 215.92C87.5334 219.801 84.5998 223.912 81.8656 228.223Z" fill="url(#paint37_linear_769_1811)"/>
<path fill-rule="evenodd" clip-rule="evenodd" d="M105.642 233.809L124.855 224.984C124.308 221.947 123.476 218.988 122.235 216.083L107.716 222.752C106.995 226.227 106.281 229.918 105.642 233.809ZM70.8245 249.801L93.2287 239.511C93.7145 235.727 94.2901 232.098 94.9084 228.635L76.7589 236.971C74.5497 241.107 72.5501 245.392 70.8245 249.801Z" fill="url(#paint38_linear_769_1811)"/>
<path fill-rule="evenodd" clip-rule="evenodd" d="M103.697 249.723L125.804 235.817C125.785 234.865 125.755 233.92 125.712 232.983C125.594 230.433 125.361 227.946 124.949 225.508L104.99 238.062C104.457 241.787 104.008 245.68 103.697 249.723ZM64.5762 274.331L91.8184 257.195C91.928 253.315 92.1733 249.549 92.5168 245.908L66.8648 262.044C65.8367 266.066 65.0599 270.166 64.5762 274.331Z" fill="url(#paint39_linear_769_1811)"/>
<path fill-rule="evenodd" clip-rule="evenodd" d="M103.36 267.836L125.6 249.392C125.593 249.146 125.602 248.898 125.628 248.651C125.741 244.728 125.854 240.945 125.823 237.278L103.339 255.925C103.204 259.465 103.187 263.108 103.32 266.845C103.332 267.176 103.345 267.508 103.36 267.836ZM65.3896 299.326L92.5458 276.805C92.1926 273.613 91.9624 270.421 91.85 267.252C91.829 266.665 91.8115 266.08 91.7977 265.496L64.1064 288.462C64.2003 290.284 64.3549 292.112 64.5739 293.946C64.7925 295.776 65.0651 297.57 65.3896 299.326Z" fill="url(#paint40_linear_769_1811)"/>
<path fill-rule="evenodd" clip-rule="evenodd" d="M105.942 287.458L125.55 266.305C125.367 261.623 125.414 257.142 125.517 252.834L104.014 276.031C104.455 279.845 105.093 283.667 105.942 287.458ZM73.6126 322.335L96.6581 297.472C95.6199 293.943 94.7568 290.365 94.0596 286.769L69.3737 313.4C70.6006 316.536 72.0192 319.514 73.6126 322.335Z" fill="url(#paint41_linear_769_1811)"/>
<path fill-rule="evenodd" clip-rule="evenodd" d="M112.578 307.193L127.511 286.126C126.776 281.533 126.249 276.976 125.907 272.51L108.558 296.987C109.697 300.456 111.034 303.871 112.578 307.193ZM88.8594 340.656L105.019 317.859C103.339 314.774 101.832 311.604 100.491 308.367L82.166 334.22C84.2546 336.533 86.4913 338.679 88.8594 340.656Z" fill="url(#paint42_linear_769_1811)"/>
<path fill-rule="evenodd" clip-rule="evenodd" d="M123.887 325.107L132.749 308.321C131.371 304.003 130.211 299.641 129.249 295.283L117.857 316.863C119.676 319.727 121.683 322.481 123.887 325.107ZM101.021 348.753C103.729 350.168 106.539 351.413 109.436 352.481L118.099 336.071C115.82 333.637 113.705 331.084 111.748 328.435L101.021 348.753Z" fill="url(#paint43_linear_769_1811)"/>
<path fill-rule="evenodd" clip-rule="evenodd" d="M139.656 339.141L142.57 331.276C140.507 327.56 138.658 323.744 137.01 319.856L132.006 333.362C134.386 335.422 136.934 337.356 139.656 339.141ZM123.544 356.199C126.631 356.71 129.775 357.046 132.964 357.206L135.544 350.239C132.799 348.572 130.2 346.779 127.742 344.871L123.544 356.199Z" fill="url(#paint44_linear_769_1811)"/>
<path fill-rule="evenodd" clip-rule="evenodd" d="M115.623 189.756C114.673 190.668 113.707 191.585 112.726 192.511C112.877 195.123 112.633 198.268 112.063 201.899C122.427 211.728 125.188 221.754 125.707 232.983C125.939 237.976 125.783 243.177 125.625 248.651C125.595 248.936 125.587 249.222 125.6 249.506C125.443 255.034 125.303 260.843 125.573 267.001C126.99 299.32 137.972 337.826 167.714 361.226C215.414 398.751 275.164 376.827 299.912 323.775L299.978 323.635C301.258 320.78 300.007 317.411 297.164 316.085C295.135 315.141 292.837 315.486 291.19 316.78C251.173 345.82 209.705 330.478 183.044 305.644C164.108 288.006 153.423 268.481 145.449 256.604C142.484 252.188 139.725 248.733 137.138 246.429C137.276 241.571 137.379 236.929 137.172 232.452C136.456 216.982 132.448 203.271 115.623 189.756ZM278.33 337.296C239.369 353.949 201.116 338.162 175.222 314.042C158.224 298.209 147.498 280.983 139.531 268.544C138.642 267.155 137.789 265.829 136.967 264.577C136.987 265.215 137.011 265.855 137.039 266.498C138.325 295.825 147.822 330.972 174.81 352.205C210.241 380.081 253.169 369.685 278.33 337.296Z" fill="url(#paint45_linear_769_1811)"/>
<path fill-rule="evenodd" clip-rule="evenodd" d="M153.476 269.051L160.231 256.256C157.438 255.161 154.417 254.362 151.082 253.919L147.785 260.164C149.531 262.871 151.412 265.86 153.476 269.051ZM140.568 293.503L147.373 280.613C145.304 277.535 143.4 274.586 141.63 271.823L138.032 278.64C138.621 283.54 139.454 288.522 140.568 293.503Z" fill="url(#paint46_linear_769_1811)"/>
<path fill-rule="evenodd" clip-rule="evenodd" d="M161.33 280.641L168.675 260.815C166.141 259.055 163.46 257.551 160.529 256.374L154.978 271.356C156.925 274.323 159.03 277.438 161.33 280.641ZM148.018 316.57L156.584 293.449C154.252 290.431 152.092 287.458 150.081 284.573L143.142 303.302C144.504 307.787 146.12 312.232 148.018 316.57Z" fill="url(#paint47_linear_769_1811)"/>
<path fill-rule="evenodd" clip-rule="evenodd" d="M171.205 293.271L177.004 267.806C176.318 267.146 175.629 266.499 174.935 265.867C173.049 264.148 171.125 262.554 169.11 261.121L163.874 284.111C166.132 287.122 168.566 290.192 171.205 293.271ZM160.943 338.334L168.089 306.955C165.423 304.131 162.933 301.297 160.602 298.479L153.873 328.027C155.99 331.6 158.34 335.046 160.943 338.334Z" fill="url(#paint48_linear_769_1811)"/>
<path fill-rule="evenodd" clip-rule="evenodd" d="M183.774 306.318L186.457 277.548C186.279 277.378 186.11 277.197 185.954 277.004C183.26 274.15 180.664 271.396 178.049 268.824L175.336 297.908C177.744 300.507 180.308 303.096 183.045 305.644C183.287 305.87 183.531 306.094 183.774 306.318ZM179.192 355.433L182.469 320.303C179.962 318.297 177.542 316.203 175.222 314.042C174.792 313.641 174.366 313.242 173.943 312.837L170.602 348.658C171.957 349.88 173.358 351.063 174.81 352.205C176.259 353.344 177.721 354.42 179.192 355.433Z" fill="url(#paint49_linear_769_1811)"/>
<path fill-rule="evenodd" clip-rule="evenodd" d="M199.472 318.366L198.38 289.544C194.939 286.363 191.804 283.161 188.831 280.042L190.029 311.649C193.037 314.034 196.191 316.286 199.472 318.366ZM201.273 365.889L199.989 332.013C196.758 330.251 193.618 328.332 190.583 326.283L191.959 362.569C195.043 363.917 198.153 365.019 201.273 365.889Z" fill="url(#paint50_linear_769_1811)"/>
<path fill-rule="evenodd" clip-rule="evenodd" d="M218.12 327.626L213.782 302.172C210.016 299.443 206.42 296.594 203.021 293.678L208.06 323.253C211.32 324.9 214.679 326.369 218.12 327.626ZM225.01 368.061L220.316 340.512C216.948 339.519 213.64 338.343 210.403 337.003L215.727 368.241C218.839 368.399 221.937 368.336 225.01 368.061Z" fill="url(#paint51_linear_769_1811)"/>
<path fill-rule="evenodd" clip-rule="evenodd" d="M238.783 332.297L233.179 314.16C229.151 312.08 225.247 309.819 221.485 307.414L228.689 330.73C232 331.468 235.369 331.999 238.783 332.297ZM239.335 365.186C242.25 364.273 245.117 363.163 247.921 361.872L242.443 344.142C239.11 344.033 235.81 343.723 232.552 343.235L239.335 365.186Z" fill="url(#paint52_linear_769_1811)"/>
<path fill-rule="evenodd" clip-rule="evenodd" d="M259.856 331.066L256.355 323.445C252.27 322.28 248.263 320.886 244.348 319.302L250.36 332.392C253.501 332.165 256.67 331.732 259.856 331.066ZM260.526 354.523C263.07 352.701 265.531 350.716 267.897 348.575L264.797 341.823C261.677 342.587 258.57 343.155 255.482 343.545L260.526 354.523Z" fill="url(#paint53_linear_769_1811)"/>
<path fill-rule="evenodd" clip-rule="evenodd" d="M137.238 242.432C137.211 243.749 137.176 245.08 137.138 246.429C139.091 248.169 141.143 250.565 143.307 253.536C157.584 253.157 166.625 258.294 174.933 265.867C178.626 269.234 182.193 273.022 185.952 277.004C186.133 277.227 186.33 277.435 186.54 277.626C190.337 281.646 194.346 285.853 198.89 290.017C222.745 311.867 257.735 331.33 295.309 326.842C355.573 319.649 382.32 261.891 362.31 206.876L362.256 206.73C361.142 203.808 357.877 202.309 354.931 203.384C352.828 204.15 351.445 206.019 351.195 208.099C343.434 256.932 303.263 275.406 266.851 276.7C240.99 277.619 219.63 271.369 205.593 268.609C200.374 267.583 195.981 267.091 192.523 267.291C189.185 263.759 185.976 260.403 182.664 257.385C171.219 246.952 158.691 240.091 137.238 242.432ZM356.609 231.7C340.835 271.026 302.623 286.913 267.258 288.169C244.044 288.996 224.28 284.399 209.851 281.237C208.24 280.883 206.7 280.549 205.234 280.245C205.698 280.682 206.168 281.117 206.642 281.553C228.288 301.38 259.854 319.517 293.949 315.445C338.714 310.103 361.719 272.394 356.609 231.7Z" fill="url(#paint54_linear_769_1811)"/>
<path fill-rule="evenodd" clip-rule="evenodd" d="M220.07 271.735L215.799 257.911C213.05 259.112 210.349 260.683 207.677 262.728L209.762 269.475C212.91 270.155 216.354 270.938 220.07 271.735ZM228.233 298.152L223.93 284.226C220.29 283.513 216.859 282.774 213.654 282.072L215.929 289.437C219.81 292.485 223.922 295.417 228.233 298.152Z" fill="url(#paint55_linear_769_1811)"/>
<path fill-rule="evenodd" clip-rule="evenodd" d="M233.818 274.377L224.994 255.164C221.957 255.711 218.997 256.544 216.093 257.784L222.762 272.304C226.236 273.024 229.928 273.738 233.818 274.377ZM249.811 309.196L239.52 286.792C235.736 286.305 232.107 285.73 228.645 285.111L236.981 303.259C241.116 305.469 245.402 307.469 249.811 309.196Z" fill="url(#paint56_linear_769_1811)"/>
<path fill-rule="evenodd" clip-rule="evenodd" d="M249.732 276.324L235.826 254.217C234.874 254.236 233.929 254.266 232.992 254.309C230.443 254.427 227.955 254.661 225.517 255.073L238.071 275.031C241.797 275.564 245.689 276.013 249.732 276.324ZM274.339 315.445L257.204 288.204C253.324 288.095 249.558 287.848 245.917 287.504L262.053 313.156C266.075 314.186 270.175 314.961 274.339 315.445Z" fill="url(#paint57_linear_769_1811)"/>
<path fill-rule="evenodd" clip-rule="evenodd" d="M267.844 276.661L249.4 254.421C249.153 254.427 248.906 254.418 248.659 254.392C244.736 254.279 240.953 254.167 237.285 254.197L255.933 276.682C259.472 276.816 263.116 276.833 266.853 276.7C267.184 276.689 267.516 276.675 267.844 276.661ZM299.336 314.631L276.812 287.475C273.621 287.828 270.429 288.058 267.26 288.169C266.673 288.192 266.088 288.21 265.504 288.224L288.47 315.913C290.292 315.821 292.119 315.666 293.953 315.446C295.784 315.227 297.58 314.955 299.336 314.631Z" fill="url(#paint58_linear_769_1811)"/>
<path fill-rule="evenodd" clip-rule="evenodd" d="M287.465 274.08L266.312 254.472C261.63 254.655 257.149 254.608 252.841 254.505L276.039 276.008C279.852 275.567 283.674 274.929 287.465 274.08ZM322.342 306.41L297.482 283.364C293.949 284.402 290.371 285.265 286.777 285.962L313.407 310.648C316.543 309.42 319.521 308.002 322.342 306.41Z" fill="url(#paint59_linear_769_1811)"/>
<path fill-rule="evenodd" clip-rule="evenodd" d="M307.198 267.44L286.131 252.508C281.538 253.242 276.981 253.769 272.515 254.111L296.991 271.461C300.463 270.321 303.875 268.985 307.198 267.44ZM340.66 291.159L317.863 275C314.779 276.68 311.608 278.187 308.371 279.527L334.224 297.853C336.537 295.764 338.683 293.526 340.66 291.159Z" fill="url(#paint60_linear_769_1811)"/>
<path fill-rule="evenodd" clip-rule="evenodd" d="M325.11 256.132L308.325 247.27C304.006 248.647 299.645 249.808 295.286 250.769L316.867 262.162C319.73 260.342 322.488 258.335 325.11 256.132ZM348.76 278.998C350.171 276.289 351.417 273.479 352.487 270.583L336.074 261.919C333.641 264.198 331.087 266.314 328.439 268.271L348.76 278.998Z" fill="url(#paint61_linear_769_1811)"/>
<path fill-rule="evenodd" clip-rule="evenodd" d="M339.142 240.36L331.277 237.446C327.564 239.51 323.745 241.358 319.857 243.007L333.363 248.011C335.426 245.631 337.357 243.082 339.142 240.36ZM356.201 256.472C356.711 253.386 357.05 250.241 357.208 247.053L350.241 244.473C348.574 247.218 346.78 249.817 344.872 252.275L356.201 256.472Z" fill="url(#paint62_linear_769_1811)"/>
<path fill-rule="evenodd" clip-rule="evenodd" d="M189.768 264.394C190.68 265.344 191.597 266.311 192.523 267.291C195.135 267.14 198.28 267.384 201.91 267.954C211.738 257.59 221.764 254.829 232.992 254.309C237.985 254.078 243.185 254.234 248.659 254.392C248.944 254.422 249.23 254.43 249.514 254.416C255.041 254.574 260.85 254.713 267.008 254.443C299.327 253.026 337.828 242.044 361.226 212.3C398.752 164.597 376.826 104.843 323.778 80.0923L323.637 80.0275C320.782 78.7483 317.414 79.9967 316.091 82.842C315.144 84.8695 315.489 87.1693 316.783 88.8166C345.824 128.835 330.48 170.306 305.647 196.969C288.011 215.906 268.488 226.592 256.611 234.567C252.196 237.532 248.741 240.29 246.437 242.877C241.58 242.74 236.937 242.637 232.462 242.844C216.992 243.56 203.282 247.568 189.768 264.394ZM337.297 101.677C353.95 140.64 338.164 178.896 314.045 204.792C298.213 221.791 280.989 232.517 268.551 240.484C267.162 241.374 265.836 242.226 264.584 243.048C265.222 243.029 265.862 243.005 266.505 242.977C295.829 241.691 330.974 232.193 352.205 205.204C380.079 169.77 369.684 126.839 337.297 101.677Z" fill="url(#paint63_linear_769_1811)"/>
<path fill-rule="evenodd" clip-rule="evenodd" d="M269.059 226.54L256.264 219.785C255.169 222.578 254.37 225.599 253.927 228.934L260.172 232.231C262.879 230.486 265.868 228.604 269.059 226.54ZM293.511 239.448L280.621 232.643C277.543 234.712 274.594 236.616 271.831 238.386L278.648 241.985C283.548 241.396 288.529 240.563 293.511 239.448Z" fill="url(#paint64_linear_769_1811)"/>
<path fill-rule="evenodd" clip-rule="evenodd" d="M280.648 218.686L260.823 211.341C259.063 213.875 257.559 216.556 256.382 219.487L271.364 225.038C274.331 223.091 277.446 220.986 280.648 218.686ZM316.577 231.998L293.459 223.432C290.44 225.764 287.465 227.923 284.58 229.935L303.309 236.874C307.794 235.511 312.239 233.895 316.577 231.998Z" fill="url(#paint65_linear_769_1811)"/>
<path fill-rule="evenodd" clip-rule="evenodd" d="M293.275 208.81L267.813 203.011C267.152 203.698 266.506 204.387 265.873 205.08C264.154 206.966 262.561 208.89 261.128 210.906L284.117 216.141C287.127 213.884 290.197 211.449 293.275 208.81ZM338.335 219.073L306.958 211.926C304.138 214.592 301.3 217.082 298.483 219.413L328.029 226.142C331.602 224.025 335.05 221.675 338.335 219.073Z" fill="url(#paint66_linear_769_1811)"/>
<path fill-rule="evenodd" clip-rule="evenodd" d="M306.321 196.24L277.554 193.556C277.385 193.735 277.203 193.903 277.01 194.06C274.156 196.754 271.402 199.349 268.831 201.964L297.912 204.677C300.511 202.27 303.099 199.705 305.647 196.969C305.874 196.726 306.098 196.483 306.321 196.24ZM355.433 200.822L320.309 197.545C318.3 200.052 316.206 202.471 314.045 204.792C313.646 205.221 313.245 205.648 312.84 206.07L348.659 209.412C349.881 208.057 351.063 206.656 352.205 205.204C353.344 203.754 354.42 202.293 355.433 200.822Z" fill="url(#paint67_linear_769_1811)"/>
<path fill-rule="evenodd" clip-rule="evenodd" d="M318.369 180.541L289.549 181.633C286.368 185.073 283.167 188.208 280.048 191.182L311.653 189.984C314.04 186.975 316.289 183.822 318.369 180.541ZM365.889 178.74L332.015 180.024C330.253 183.255 328.334 186.394 326.285 189.429L362.569 188.054C363.917 184.97 365.022 181.86 365.889 178.74Z" fill="url(#paint68_linear_769_1811)"/>
<path fill-rule="evenodd" clip-rule="evenodd" d="M327.629 161.891L302.176 166.229C299.448 169.996 296.599 173.591 293.684 176.991L323.256 171.951C324.903 168.691 326.372 165.333 327.629 161.891ZM368.061 155.001L340.514 159.695C339.521 163.063 338.345 166.371 337.005 169.608L368.245 164.284C368.402 161.173 368.336 158.074 368.061 155.001Z" fill="url(#paint69_linear_769_1811)"/>
<path fill-rule="evenodd" clip-rule="evenodd" d="M332.3 141.227L314.166 146.831C312.085 150.859 309.822 154.763 307.42 158.526L330.733 151.321C331.474 148.01 332.002 144.641 332.3 141.227ZM365.192 140.675C364.276 137.76 363.169 134.893 361.875 132.089L344.145 137.567C344.036 140.901 343.726 144.201 343.238 147.458L365.192 140.675Z" fill="url(#paint70_linear_769_1811)"/>
<path fill-rule="evenodd" clip-rule="evenodd" d="M331.071 120.152L323.448 123.653C322.283 127.739 320.888 131.746 319.304 135.661L332.394 129.648C332.17 126.507 331.734 123.339 331.071 120.152ZM354.526 119.483C352.706 116.939 350.721 114.478 348.577 112.111L341.826 115.212C342.589 118.332 343.157 121.438 343.547 124.526L354.526 119.483Z" fill="url(#paint71_linear_769_1811)"/>
<defs>
<linearGradient id="paint0_linear_769_1811" x1="246.11" y1="243.267" x2="208.06" y2="23.5424" gradientUnits="userSpaceOnUse">
<stop stop-color="white" stop-opacity="0"/>
<stop offset="0.63" stop-color="white"/>
<stop offset="0.79" stop-color="white" stop-opacity="0.74"/>
<stop offset="1" stop-color="white" stop-opacity="0.15"/>
</linearGradient>
<linearGradient id="paint1_linear_769_1811" x1="260.26" y1="168.694" x2="362.56" y2="133.871" gradientUnits="userSpaceOnUse">
<stop stop-color="white" stop-opacity="0.2"/>
<stop offset="1" stop-color="white" stop-opacity="0.4"/>
</linearGradient>
<linearGradient id="paint2_linear_769_1811" x1="256.457" y1="160.312" x2="351.585" y2="115.785" gradientUnits="userSpaceOnUse">
<stop stop-color="white" stop-opacity="0.2"/>
<stop offset="1" stop-color="white" stop-opacity="0.25"/>
</linearGradient>
<linearGradient id="paint3_linear_769_1811" x1="253.458" y1="148.769" x2="320.752" y2="143.959" gradientUnits="userSpaceOnUse">
<stop stop-color="white" stop-opacity="0.26"/>
<stop offset="1" stop-color="white" stop-opacity="0.69"/>
</linearGradient>
<linearGradient id="paint4_linear_769_1811" x1="254.221" y1="136.79" x2="313.953" y2="154.045" gradientUnits="userSpaceOnUse">
<stop stop-color="white" stop-opacity="0.29"/>
<stop offset="1" stop-color="white" stop-opacity="0.78"/>
</linearGradient>
<linearGradient id="paint5_linear_769_1811" x1="254.558" y1="119.668" x2="296.925" y2="142.661" gradientUnits="userSpaceOnUse">
<stop stop-color="white" stop-opacity="0.31"/>
<stop offset="1" stop-color="white" stop-opacity="0.67"/>
</linearGradient>
<linearGradient id="paint6_linear_769_1811" x1="253.177" y1="98.8278" x2="288.951" y2="115.404" gradientUnits="userSpaceOnUse">
<stop stop-color="white" stop-opacity="0.3"/>
<stop offset="1" stop-color="white" stop-opacity="0.6"/>
</linearGradient>
<linearGradient id="paint7_linear_769_1811" x1="224.19" y1="124.989" x2="275.031" y2="29.3166" gradientUnits="userSpaceOnUse">
<stop stop-color="white" stop-opacity="0.2"/>
<stop offset="1" stop-color="white" stop-opacity="0.4"/>
</linearGradient>
<linearGradient id="paint8_linear_769_1811" x1="167.263" y1="120.443" x2="136.865" y2="20.397" gradientUnits="userSpaceOnUse">
<stop stop-color="white" stop-opacity="0.2"/>
<stop offset="1" stop-color="white" stop-opacity="0.25"/>
</linearGradient>
<linearGradient id="paint9_linear_769_1811" x1="267.035" y1="188.098" x2="85.3611" y2="58.7469" gradientUnits="userSpaceOnUse">
<stop stop-color="white" stop-opacity="0"/>
<stop offset="0.63" stop-color="white"/>
<stop offset="0.810645" stop-color="white" stop-opacity="0.74"/>
<stop offset="1" stop-color="white" stop-opacity="0.15"/>
</linearGradient>
<linearGradient id="paint10_linear_769_1811" x1="224.66" y1="125.281" x2="272.436" y2="28.3501" gradientUnits="userSpaceOnUse">
<stop stop-color="white" stop-opacity="0.2"/>
<stop offset="1" stop-color="white" stop-opacity="0.4"/>
</linearGradient>
<linearGradient id="paint11_linear_769_1811" x1="216.047" y1="122.038" x2="251.891" y2="23.3096" gradientUnits="userSpaceOnUse">
<stop stop-color="white" stop-opacity="0.2"/>
<stop offset="1" stop-color="white" stop-opacity="0.25"/>
</linearGradient>
<linearGradient id="paint12_linear_769_1811" x1="205.768" y1="115.989" x2="249.984" y2="65.0321" gradientUnits="userSpaceOnUse">
<stop stop-color="white" stop-opacity="0.26"/>
<stop offset="1" stop-color="white" stop-opacity="0.69"/>
</linearGradient>
<linearGradient id="paint13_linear_769_1811" x1="197.844" y1="106.974" x2="252.301" y2="76.9732" gradientUnits="userSpaceOnUse">
<stop stop-color="white" stop-opacity="0.29"/>
<stop offset="1" stop-color="white" stop-opacity="0.78"/>
</linearGradient>
<linearGradient id="paint14_linear_769_1811" x1="185.983" y1="94.6216" x2="232.209" y2="80.9517" gradientUnits="userSpaceOnUse">
<stop stop-color="white" stop-opacity="0.31"/>
<stop offset="1" stop-color="white" stop-opacity="0.67"/>
</linearGradient>
<linearGradient id="paint15_linear_769_1811" x1="170.283" y1="80.8512" x2="207.309" y2="67.3003" gradientUnits="userSpaceOnUse">
<stop stop-color="white" stop-opacity="0.3"/>
<stop offset="1" stop-color="white" stop-opacity="0.6"/>
</linearGradient>
<linearGradient id="paint16_linear_769_1811" x1="168.26" y1="119.847" x2="136.625" y2="16.2256" gradientUnits="userSpaceOnUse">
<stop stop-color="white" stop-opacity="0.2"/>
<stop offset="1" stop-color="white" stop-opacity="0.4"/>
</linearGradient>
<linearGradient id="paint17_linear_769_1811" x1="124.77" y1="156.859" x2="32.5622" y2="107.551" gradientUnits="userSpaceOnUse">
<stop stop-color="white" stop-opacity="0.2"/>
<stop offset="1" stop-color="white" stop-opacity="0.25"/>
</linearGradient>
<linearGradient id="paint18_linear_769_1811" x1="243.258" y1="133.88" x2="22.5953" y2="171.923" gradientUnits="userSpaceOnUse">
<stop stop-color="white" stop-opacity="0"/>
<stop offset="0.63" stop-color="white"/>
<stop offset="0.79" stop-color="white" stop-opacity="0.74"/>
<stop offset="1" stop-color="white" stop-opacity="0.15"/>
</linearGradient>
<linearGradient id="paint19_linear_769_1811" x1="168.782" y1="119.726" x2="134.067" y2="17.3879" gradientUnits="userSpaceOnUse">
<stop stop-color="white" stop-opacity="0.2"/>
<stop offset="1" stop-color="white" stop-opacity="0.4"/>
</linearGradient>
<linearGradient id="paint20_linear_769_1811" x1="160.399" y1="123.52" x2="115.973" y2="28.3445" gradientUnits="userSpaceOnUse">
<stop stop-color="white" stop-opacity="0.2"/>
<stop offset="1" stop-color="white" stop-opacity="0.25"/>
</linearGradient>
<linearGradient id="paint21_linear_769_1811" x1="148.853" y1="126.507" x2="144.115" y2="59.207" gradientUnits="userSpaceOnUse">
<stop stop-color="white" stop-opacity="0.26"/>
<stop offset="1" stop-color="white" stop-opacity="0.69"/>
</linearGradient>
<linearGradient id="paint22_linear_769_1811" x1="136.877" y1="125.731" x2="154.195" y2="66.0171" gradientUnits="userSpaceOnUse">
<stop stop-color="white" stop-opacity="0.29"/>
<stop offset="1" stop-color="white" stop-opacity="0.78"/>
</linearGradient>
<linearGradient id="paint23_linear_769_1811" x1="119.757" y1="125.376" x2="142.795" y2="83.0335" gradientUnits="userSpaceOnUse">
<stop stop-color="white" stop-opacity="0.31"/>
<stop offset="1" stop-color="white" stop-opacity="0.67"/>
</linearGradient>
<linearGradient id="paint24_linear_769_1811" x1="98.9162" y1="126.734" x2="115.531" y2="90.9778" gradientUnits="userSpaceOnUse">
<stop stop-color="white" stop-opacity="0.3"/>
<stop offset="1" stop-color="white" stop-opacity="0.6"/>
</linearGradient>
<linearGradient id="paint25_linear_769_1811" x1="125.048" y1="155.75" x2="29.4296" y2="104.808" gradientUnits="userSpaceOnUse">
<stop stop-color="white" stop-opacity="0.2"/>
<stop offset="1" stop-color="white" stop-opacity="0.4"/>
</linearGradient>
<linearGradient id="paint26_linear_769_1811" x1="120.443" y1="212.673" x2="20.3646" y2="242.965" gradientUnits="userSpaceOnUse">
<stop stop-color="white" stop-opacity="0.2"/>
<stop offset="1" stop-color="white" stop-opacity="0.25"/>
</linearGradient>
<linearGradient id="paint27_linear_769_1811" x1="187.141" y1="112.954" x2="57.776" y2="295.574" gradientUnits="userSpaceOnUse">
<stop stop-color="white" stop-opacity="0"/>
<stop offset="0.63" stop-color="white"/>
<stop offset="0.79" stop-color="white" stop-opacity="0.74"/>
<stop offset="1" stop-color="white" stop-opacity="0.15"/>
</linearGradient>
<linearGradient id="paint28_linear_769_1811" x1="125.328" y1="155.295" x2="28.4373" y2="107.438" gradientUnits="userSpaceOnUse">
<stop stop-color="white" stop-opacity="0.2"/>
<stop offset="1" stop-color="white" stop-opacity="0.4"/>
</linearGradient>
<linearGradient id="paint29_linear_769_1811" x1="122.079" y1="163.906" x2="23.3814" y2="127.979" gradientUnits="userSpaceOnUse">
<stop stop-color="white" stop-opacity="0.2"/>
<stop offset="1" stop-color="white" stop-opacity="0.25"/>
</linearGradient>
<linearGradient id="paint30_linear_769_1811" x1="116.019" y1="174.18" x2="65.0995" y2="129.924" gradientUnits="userSpaceOnUse">
<stop stop-color="white" stop-opacity="0.26"/>
<stop offset="1" stop-color="white" stop-opacity="0.69"/>
</linearGradient>
<linearGradient id="paint31_linear_769_1811" x1="106.999" y1="182.097" x2="77.0421" y2="127.616" gradientUnits="userSpaceOnUse">
<stop stop-color="white" stop-opacity="0.29"/>
<stop offset="1" stop-color="white" stop-opacity="0.78"/>
</linearGradient>
<linearGradient id="paint32_linear_769_1811" x1="94.6374" y1="193.948" x2="81.0057" y2="147.712" gradientUnits="userSpaceOnUse">
<stop stop-color="white" stop-opacity="0.31"/>
<stop offset="1" stop-color="white" stop-opacity="0.67"/>
</linearGradient>
<linearGradient id="paint33_linear_769_1811" x1="80.8545" y1="209.64" x2="67.3342" y2="172.603" gradientUnits="userSpaceOnUse">
<stop stop-color="white" stop-opacity="0.3"/>
<stop offset="1" stop-color="white" stop-opacity="0.6"/>
</linearGradient>
<linearGradient id="paint34_linear_769_1811" x1="119.852" y1="211.696" x2="16.2047" y2="243.244" gradientUnits="userSpaceOnUse">
<stop stop-color="white" stop-opacity="0.2"/>
<stop offset="1" stop-color="white" stop-opacity="0.4"/>
</linearGradient>
<linearGradient id="paint35_linear_769_1811" x1="156.827" y1="255.219" x2="107.442" y2="347.385" gradientUnits="userSpaceOnUse">
<stop stop-color="white" stop-opacity="0.2"/>
<stop offset="1" stop-color="white" stop-opacity="0.25"/>
</linearGradient>
<linearGradient id="paint36_linear_769_1811" x1="133.878" y1="136.734" x2="170.977" y2="357.409" gradientUnits="userSpaceOnUse">
<stop stop-color="white" stop-opacity="0"/>
<stop offset="0.63" stop-color="white"/>
<stop offset="0.79" stop-color="white" stop-opacity="0.74"/>
<stop offset="1" stop-color="white" stop-opacity="0.15"/>
</linearGradient>
<linearGradient id="paint37_linear_769_1811" x1="119.753" y1="211.262" x2="17.4296" y2="246.02" gradientUnits="userSpaceOnUse">
<stop stop-color="white" stop-opacity="0.2"/>
<stop offset="1" stop-color="white" stop-opacity="0.4"/>
</linearGradient>
<linearGradient id="paint38_linear_769_1811" x1="123.551" y1="219.646" x2="28.395" y2="264.112" gradientUnits="userSpaceOnUse">
<stop stop-color="white" stop-opacity="0.2"/>
<stop offset="1" stop-color="white" stop-opacity="0.25"/>
</linearGradient>
<linearGradient id="paint39_linear_769_1811" x1="126.545" y1="231.191" x2="59.2473" y2="235.958" gradientUnits="userSpaceOnUse">
<stop stop-color="white" stop-opacity="0.26"/>
<stop offset="1" stop-color="white" stop-opacity="0.69"/>
</linearGradient>
<linearGradient id="paint40_linear_769_1811" x1="125.773" y1="243.17" x2="66.0521" y2="225.877" gradientUnits="userSpaceOnUse">
<stop stop-color="white" stop-opacity="0.29"/>
<stop offset="1" stop-color="white" stop-opacity="0.78"/>
</linearGradient>
<linearGradient id="paint41_linear_769_1811" x1="125.427" y1="260.291" x2="83.0749" y2="237.271" gradientUnits="userSpaceOnUse">
<stop stop-color="white" stop-opacity="0.31"/>
<stop offset="1" stop-color="white" stop-opacity="0.67"/>
</linearGradient>
<linearGradient id="paint42_linear_769_1811" x1="126.791" y1="281.132" x2="91.0274" y2="264.533" gradientUnits="userSpaceOnUse">
<stop stop-color="white" stop-opacity="0.3"/>
<stop offset="1" stop-color="white" stop-opacity="0.6"/>
</linearGradient>
<linearGradient id="paint43_linear_769_1811" x1="155.796" y1="254.99" x2="104.894" y2="350.63" gradientUnits="userSpaceOnUse">
<stop stop-color="white" stop-opacity="0.2"/>
<stop offset="1" stop-color="white" stop-opacity="0.4"/>
</linearGradient>
<linearGradient id="paint44_linear_769_1811" x1="212.718" y1="259.571" x2="243.053" y2="359.637" gradientUnits="userSpaceOnUse">
<stop stop-color="white" stop-opacity="0.2"/>
<stop offset="1" stop-color="white" stop-opacity="0.25"/>
</linearGradient>
<linearGradient id="paint45_linear_769_1811" x1="112.002" y1="192.854" x2="293.676" y2="322.204" gradientUnits="userSpaceOnUse">
<stop stop-color="white" stop-opacity="0"/>
<stop offset="0.63" stop-color="white"/>
<stop offset="0.79" stop-color="white" stop-opacity="0.74"/>
<stop offset="1" stop-color="white" stop-opacity="0.15"/>
</linearGradient>
<linearGradient id="paint46_linear_769_1811" x1="155.365" y1="254.719" x2="107.589" y2="351.65" gradientUnits="userSpaceOnUse">
<stop stop-color="white" stop-opacity="0.2"/>
<stop offset="1" stop-color="white" stop-opacity="0.4"/>
</linearGradient>
<linearGradient id="paint47_linear_769_1811" x1="163.979" y1="257.963" x2="128.135" y2="356.691" gradientUnits="userSpaceOnUse">
<stop stop-color="white" stop-opacity="0.2"/>
<stop offset="1" stop-color="white" stop-opacity="0.25"/>
</linearGradient>
<linearGradient id="paint48_linear_769_1811" x1="174.257" y1="264.011" x2="130.041" y2="314.968" gradientUnits="userSpaceOnUse">
<stop stop-color="white" stop-opacity="0.26"/>
<stop offset="1" stop-color="white" stop-opacity="0.69"/>
</linearGradient>
<linearGradient id="paint49_linear_769_1811" x1="182.18" y1="273.026" x2="127.723" y2="303.027" gradientUnits="userSpaceOnUse">
<stop stop-color="white" stop-opacity="0.29"/>
<stop offset="1" stop-color="white" stop-opacity="0.78"/>
</linearGradient>
<linearGradient id="paint50_linear_769_1811" x1="194.041" y1="285.379" x2="147.815" y2="299.048" gradientUnits="userSpaceOnUse">
<stop stop-color="white" stop-opacity="0.31"/>
<stop offset="1" stop-color="white" stop-opacity="0.67"/>
</linearGradient>
<linearGradient id="paint51_linear_769_1811" x1="209.742" y1="299.15" x2="172.716" y2="312.701" gradientUnits="userSpaceOnUse">
<stop stop-color="white" stop-opacity="0.3"/>
<stop offset="1" stop-color="white" stop-opacity="0.6"/>
</linearGradient>
<linearGradient id="paint52_linear_769_1811" x1="211.765" y1="260.153" x2="243.4" y2="363.775" gradientUnits="userSpaceOnUse">
<stop stop-color="white" stop-opacity="0.2"/>
<stop offset="1" stop-color="white" stop-opacity="0.4"/>
</linearGradient>
<linearGradient id="paint53_linear_769_1811" x1="255.255" y1="223.142" x2="347.462" y2="272.449" gradientUnits="userSpaceOnUse">
<stop stop-color="white" stop-opacity="0.2"/>
<stop offset="1" stop-color="white" stop-opacity="0.25"/>
</linearGradient>
<linearGradient id="paint54_linear_769_1811" x1="136.731" y1="246.12" x2="355.491" y2="210.931" gradientUnits="userSpaceOnUse">
<stop stop-color="white" stop-opacity="0"/>
<stop offset="0.63" stop-color="white"/>
<stop offset="0.79" stop-color="white" stop-opacity="0.74"/>
<stop offset="1" stop-color="white" stop-opacity="0.15"/>
</linearGradient>
<linearGradient id="paint55_linear_769_1811" x1="211.271" y1="260.266" x2="246.029" y2="362.589" gradientUnits="userSpaceOnUse">
<stop stop-color="white" stop-opacity="0.2"/>
<stop offset="1" stop-color="white" stop-opacity="0.4"/>
</linearGradient>
<linearGradient id="paint56_linear_769_1811" x1="219.656" y1="256.468" x2="264.122" y2="351.625" gradientUnits="userSpaceOnUse">
<stop stop-color="white" stop-opacity="0.2"/>
<stop offset="1" stop-color="white" stop-opacity="0.25"/>
</linearGradient>
<linearGradient id="paint57_linear_769_1811" x1="231.2" y1="253.476" x2="235.967" y2="320.774" gradientUnits="userSpaceOnUse">
<stop stop-color="white" stop-opacity="0.26"/>
<stop offset="1" stop-color="white" stop-opacity="0.69"/>
</linearGradient>
<linearGradient id="paint58_linear_769_1811" x1="243.178" y1="254.247" x2="225.884" y2="313.968" gradientUnits="userSpaceOnUse">
<stop stop-color="white" stop-opacity="0.29"/>
<stop offset="1" stop-color="white" stop-opacity="0.78"/>
</linearGradient>
<linearGradient id="paint59_linear_769_1811" x1="260.298" y1="254.595" x2="237.278" y2="296.947" gradientUnits="userSpaceOnUse">
<stop stop-color="white" stop-opacity="0.31"/>
<stop offset="1" stop-color="white" stop-opacity="0.67"/>
</linearGradient>
<linearGradient id="paint60_linear_769_1811" x1="281.137" y1="253.228" x2="264.538" y2="288.991" gradientUnits="userSpaceOnUse">
<stop stop-color="white" stop-opacity="0.3"/>
<stop offset="1" stop-color="white" stop-opacity="0.6"/>
</linearGradient>
<linearGradient id="paint61_linear_769_1811" x1="254.994" y1="224.223" x2="350.634" y2="275.125" gradientUnits="userSpaceOnUse">
<stop stop-color="white" stop-opacity="0.2"/>
<stop offset="1" stop-color="white" stop-opacity="0.4"/>
</linearGradient>
<linearGradient id="paint62_linear_769_1811" x1="259.573" y1="167.298" x2="359.639" y2="136.963" gradientUnits="userSpaceOnUse">
<stop stop-color="white" stop-opacity="0.2"/>
<stop offset="1" stop-color="white" stop-opacity="0.25"/>
</linearGradient>
<linearGradient id="paint63_linear_769_1811" x1="191.896" y1="267.998" x2="321.261" y2="87.2795" gradientUnits="userSpaceOnUse">
<stop stop-color="white" stop-opacity="0"/>
<stop offset="0.63" stop-color="white"/>
<stop offset="0.79" stop-color="white" stop-opacity="0.74"/>
<stop offset="1" stop-color="white" stop-opacity="0.15"/>
</linearGradient>
<linearGradient id="paint64_linear_769_1811" x1="254.727" y1="224.651" x2="351.658" y2="272.427" gradientUnits="userSpaceOnUse">
<stop stop-color="white" stop-opacity="0.2"/>
<stop offset="1" stop-color="white" stop-opacity="0.4"/>
</linearGradient>
<linearGradient id="paint65_linear_769_1811" x1="257.97" y1="216.037" x2="356.698" y2="251.881" gradientUnits="userSpaceOnUse">
<stop stop-color="white" stop-opacity="0.2"/>
<stop offset="1" stop-color="white" stop-opacity="0.25"/>
</linearGradient>
<linearGradient id="paint66_linear_769_1811" x1="264.018" y1="205.758" x2="314.974" y2="249.971" gradientUnits="userSpaceOnUse">
<stop stop-color="white" stop-opacity="0.26"/>
<stop offset="1" stop-color="white" stop-opacity="0.69"/>
</linearGradient>
<linearGradient id="paint67_linear_769_1811" x1="273.032" y1="197.833" x2="303.034" y2="252.289" gradientUnits="userSpaceOnUse">
<stop stop-color="white" stop-opacity="0.29"/>
<stop offset="1" stop-color="white" stop-opacity="0.78"/>
</linearGradient>
<linearGradient id="paint68_linear_769_1811" x1="285.384" y1="185.972" x2="299.055" y2="232.197" gradientUnits="userSpaceOnUse">
<stop stop-color="white" stop-opacity="0.31"/>
<stop offset="1" stop-color="white" stop-opacity="0.67"/>
</linearGradient>
<linearGradient id="paint69_linear_769_1811" x1="299.155" y1="170.269" x2="312.707" y2="207.294" gradientUnits="userSpaceOnUse">
<stop stop-color="white" stop-opacity="0.3"/>
<stop offset="1" stop-color="white" stop-opacity="0.6"/>
</linearGradient>
<linearGradient id="paint70_linear_769_1811" x1="260.157" y1="168.245" x2="363.778" y2="136.611" gradientUnits="userSpaceOnUse">
<stop stop-color="white" stop-opacity="0.2"/>
<stop offset="1" stop-color="white" stop-opacity="0.4"/>
</linearGradient>
<linearGradient id="paint71_linear_769_1811" x1="223.145" y1="124.754" x2="272.452" y2="32.5463" gradientUnits="userSpaceOnUse">
<stop stop-color="white" stop-opacity="0.2"/>
<stop offset="1" stop-color="white" stop-opacity="0.25"/>
</linearGradient>
</defs>
</svg>
